<?xml version="1.0" standalone="no"?>
<!DOCTYPE svg PUBLIC "-//W3C//DTD SVG 20010904//EN"
 "http://www.w3.org/TR/2001/REC-SVG-20010904/DTD/svg10.dtd">
<svg version="1.0" xmlns="http://www.w3.org/2000/svg"
 width="300.000000pt" height="300.000000pt" viewBox="0 0 300.000000 300.000000"
 preserveAspectRatio="xMidYMid meet">
<metadata>
Created by potrace 1.10, written by Peter Selinger 2001-2011
</metadata>
<g transform="translate(0.000000,300.000000) scale(0.100000,-0.100000)"
fill="#000000" stroke="none">
<path d="M700 2669 c-169 -24 -270 -116 -270 -247 0 -36 22 -41 25 -6 4 55 18
92 45 124 16 19 30 38 30 41 0 4 28 19 63 34 51 22 77 27 147 27 58 0 94 -5
114 -15 39 -21 103 -83 111 -107 7 -23 25 -27 25 -7 0 19 -52 89 -85 115 -48
38 -122 53 -205 41z"/>
<path d="M1830 2651 c0 -3 -7 -62 -15 -131 -8 -69 -15 -132 -15 -140 0 -12 16
-16 73 -18 l74 -2 22 102 c12 57 25 111 28 122 3 11 1 16 -5 12 -5 -3 -12 -23
-15 -43 -17 -103 -40 -184 -49 -171 -7 10 -11 10 -15 1 -5 -14 -80 -8 -96 7
-5 4 -4 25 2 46 5 22 13 68 16 104 4 36 11 70 16 76 11 13 78 8 164 -11 54
-12 221 -29 185 -19 -46 13 -370 70 -370 65z"/>
<path d="M1410 2598 c-52 -71 -27 -129 60 -143 35 -6 35 -6 -12 19 -53 29 -65
54 -46 91 l14 25 42 -44 c23 -24 42 -53 42 -64 0 -21 24 -37 49 -33 20 4 40
25 38 43 -1 8 18 32 43 52 44 37 44 38 54 16 13 -29 1 -48 -59 -87 -52 -35
-67 -52 -58 -67 3 -5 -2 -15 -11 -22 -16 -11 -16 -16 9 -68 14 -30 39 -66 56
-80 35 -30 26 -39 -19 -20 -37 15 -71 78 -72 131 0 17 -5 35 -10 38 -6 4 -10
16 -8 27 2 12 -3 23 -9 25 -33 12 1 -160 43 -214 33 -44 88 -59 152 -41 36 10
48 19 50 35 3 20 -1 22 -41 21 -24 0 -53 5 -65 11 -32 17 -55 69 -58 133 l-4
57 41 12 c79 24 107 75 75 138 -29 55 -38 54 -80 -9 -36 -52 -43 -58 -73 -57
-30 1 -38 7 -70 59 -20 32 -37 58 -39 58 -2 0 -18 -19 -34 -42z m158 -115 c-2
-10 -10 -18 -18 -18 -8 0 -16 8 -18 18 -2 12 3 17 18 17 15 0 20 -5 18 -17z"/>
<path d="M2250 2565 c19 -7 49 -14 67 -14 17 -1 34 -5 38 -11 3 -5 -1 -52 -10
-104 -23 -143 -27 -132 65 -146 55 -9 80 -17 80 -26 0 -9 -13 -14 -37 -15 -21
-1 -30 -3 -20 -6 10 -3 23 -16 28 -30 6 -15 13 -22 18 -17 8 9 102 316 98 320
-4 4 -334 64 -348 63 -8 0 2 -7 21 -14z m222 -46 c74 -15 82 -25 63 -78 -8
-23 -14 -45 -14 -49 0 -4 -5 -28 -12 -54 -7 -32 -16 -48 -27 -48 -43 0 -142
23 -142 34 0 6 7 54 15 106 8 52 15 99 15 104 0 4 10 6 23 2 12 -3 48 -11 79
-17z"/>
<path d="M2134 2559 c-68 -19 -122 -108 -147 -241 -6 -32 -8 -61 -4 -64 4 -4
55 -15 114 -25 60 -10 122 -21 139 -24 l32 -6 12 87 c23 164 -8 255 -95 277
-11 3 -34 1 -51 -4z m81 -53 c36 -36 49 -92 35 -145 -39 -147 -200 -128 -200
24 0 112 100 186 165 121z m-189 -171 c-3 -9 3 -24 14 -35 36 -36 22 -63 -21
-40 -22 12 -26 59 -7 78 16 16 21 15 14 -3z m234 -69 c0 -36 -21 -53 -52 -41
-12 5 -9 13 16 40 17 19 32 35 34 35 1 0 2 -15 2 -34z"/>
<path d="M2129 2451 c-21 -21 -29 -39 -29 -64 0 -42 33 -87 64 -87 25 0 60 33
71 68 10 33 -12 87 -41 101 -33 15 -31 15 -65 -18z m59 -33 c18 -18 14 -56 -6
-67 -23 -12 -42 3 -42 34 0 20 17 45 30 45 3 0 11 -5 18 -12z"/>
<path d="M963 2484 c-6 -3 -130 -29 -275 -59 -144 -29 -262 -56 -260 -59 1 -3
2 -12 2 -19 0 -8 9 -24 20 -37 22 -25 47 -96 37 -106 -3 -4 -14 1 -23 10 -19
19 -53 15 -121 -14 -77 -34 -132 -146 -119 -241 7 -48 10 -54 25 -44 6 3 10
35 10 70 -2 116 62 200 160 212 43 5 51 3 63 -16 7 -11 18 -21 23 -21 6 0 19
-23 29 -50 14 -38 22 -49 35 -46 33 9 162 28 166 24 9 -8 22 -164 17 -198 -6
-48 -19 -60 -61 -60 -43 1 -72 16 -101 53 -22 28 -40 28 -40 1 0 -8 5 -12 10
-9 6 3 10 2 10 -3 0 -8 -22 -22 -36 -22 -14 0 -1 50 16 61 12 8 22 27 23 43 6
90 -91 -16 -117 -127 -10 -41 20 -48 51 -13 23 27 25 28 43 11 11 -10 20 -13
20 -7 0 7 11 6 35 -4 48 -20 118 -18 145 4 29 24 37 113 17 207 -8 39 -14 70
-13 71 0 1 17 4 36 6 l35 6 105 -164 c58 -91 105 -172 105 -181 0 -27 24 -26
31 1 3 14 12 26 20 26 9 0 4 -15 -16 -47 -28 -44 -40 -93 -22 -93 41 0 132
116 132 170 0 27 -18 25 -51 -6 l-27 -26 -14 27 -14 26 -12 -26 c-12 -26 -32
-26 -32 0 0 9 6 12 17 8 12 -5 14 -3 8 8 -14 23 -167 222 -193 251 -28 30 -26
32 66 43 l52 7 0 53 c0 38 4 55 15 59 17 6 20 51 5 61 -16 10 -9 114 8 124 21
12 11 56 -13 58 -11 1 -25 0 -32 -3z m12 -31 c3 -10 1 -19 -6 -22 -8 -2 -7 -6
2 -12 15 -9 10 -12 -46 -24 l-30 -7 31 -13 c74 -31 48 -135 -33 -135 -87 0
-102 120 -18 144 12 3 10 4 -5 1 -45 -7 -95 -23 -77 -24 9 -1 17 -4 17 -8 -1
-21 -21 -34 -70 -43 -48 -9 -55 -8 -72 10 -20 22 -43 26 -53 10 -3 -5 1 -10 9
-10 18 0 56 -47 56 -70 0 -10 -9 -29 -21 -44 -16 -20 -29 -26 -59 -26 -30 0
-43 6 -59 26 -12 15 -21 34 -21 44 0 24 38 70 57 70 9 0 14 3 10 6 -10 10 -75
-19 -70 -32 2 -6 0 -15 -6 -19 -6 -3 -11 1 -11 10 0 8 -7 18 -16 22 -13 5 -13
7 -2 14 10 6 8 9 -7 9 -17 0 -17 2 -5 10 12 8 13 12 2 19 -10 6 -4 10 19 15
24 5 35 2 42 -9 4 -9 13 -13 18 -9 7 4 6 10 -1 19 -8 9 -1 14 32 19 24 3 115
22 203 40 192 41 181 40 190 19z m-169 -185 c-3 -13 -8 -44 -11 -70 -9 -66
-28 -79 -55 -36 -25 41 -25 58 -1 58 11 0 22 3 24 8 3 4 -9 7 -26 7 -25 0 -33
5 -35 22 -3 22 11 28 81 32 23 1 27 -2 23 -21z m110 -48 c38 0 41 -2 38 -26
-3 -35 -4 -35 -79 -49 -72 -14 -72 -14 -54 48 9 33 14 38 32 33 12 -3 41 -6
63 -6z m-216 -31 c0 -6 9 -23 20 -39 l19 -27 -56 -12 c-98 -19 -110 -17 -134
32 -12 23 -15 36 -8 30 22 -21 106 -16 126 7 19 22 33 26 33 9z m-150 -246 c0
-5 -7 -17 -15 -27 -8 -11 -15 -32 -15 -47 0 -18 -6 -28 -20 -32 -28 -7 -26 16
5 70 23 38 46 56 45 36z m587 -173 c-6 -17 -27 -45 -45 -63 l-34 -32 17 40
c27 66 86 118 62 55z"/>
<path d="M852 2348 c-15 -15 -15 -61 0 -76 7 -7 21 -12 33 -12 28 0 45 19 45
50 0 31 -17 50 -45 50 -12 0 -26 -5 -33 -12z"/>
<path d="M550 2279 c-28 -52 28 -102 70 -64 11 10 20 26 20 36 0 45 -70 67
-90 28z"/>
<path d="M1790 2316 c0 -25 -4 -36 -15 -36 -8 0 -15 -8 -15 -17 0 -15 2 -16
10 -3 8 12 10 10 10 -10 1 -24 2 -24 15 5 7 17 16 38 19 48 4 13 16 17 49 17
52 0 74 -15 80 -55 3 -24 4 -21 6 13 0 23 -2 42 -6 42 -19 0 -120 19 -135 25
-15 6 -18 1 -18 -29z"/>
<path d="M1060 2320 c-23 -3 -36 -11 -38 -23 -3 -16 -1 -17 19 -7 30 16 90 7
135 -21 47 -29 92 -100 100 -159 4 -32 11 -47 21 -47 12 0 14 10 11 46 -13
134 -126 230 -248 211z"/>
<path d="M2300 2263 c0 -11 7 -13 31 -8 19 4 29 3 26 -2 -4 -5 8 -7 26 -4 23
3 26 6 12 9 -11 2 -37 7 -57 12 -31 6 -38 5 -38 -7z"/>
<path d="M1774 2160 c-4 -27 -6 -53 -5 -57 1 -5 54 -15 119 -25 64 -9 118 -17
120 -17 2 -1 0 -5 -3 -11 -3 -5 3 -10 13 -10 16 0 21 -10 27 -55 6 -51 13 -64
27 -50 3 4 1 25 -4 48 -6 23 -10 50 -10 60 1 12 -4 17 -13 14 -7 -3 -21 3 -30
13 -17 18 -33 23 -110 34 -104 14 -105 14 -105 62 0 60 -18 56 -26 -6z"/>
<path d="M2055 2203 c6 -4 12 -27 12 -51 2 -44 16 -72 37 -72 7 0 7 3 -1 8 -7
5 -16 30 -20 57 -5 43 -4 48 11 42 10 -4 28 -7 41 -7 23 0 23 -2 13 -32 -6
-18 -15 -37 -19 -42 -12 -13 -11 -29 1 -21 5 3 20 28 33 55 23 49 23 49 3 54
-46 10 -120 17 -111 9z"/>
<path d="M2526 2185 c-15 -8 -32 -12 -38 -9 -5 3 -4 -3 3 -14 11 -18 10 -24
-6 -42 -10 -11 -25 -18 -32 -16 -8 3 -21 -11 -34 -35 -17 -35 -24 -40 -47 -35
-15 3 -67 10 -115 17 -75 11 -90 10 -98 -2 -5 -8 -9 -9 -9 -4 0 6 -9 -3 -19
-20 -23 -36 -38 -120 -22 -129 5 -4 8 -13 5 -21 -3 -8 4 -26 15 -41 23 -29 28
-83 9 -102 -34 -34 -120 10 -133 69 -7 32 15 69 42 69 7 0 13 9 13 20 0 29
-52 27 -80 -2 -18 -19 -21 -32 -17 -69 7 -78 72 -140 148 -141 97 -1 119 104
39 187 -29 30 -30 31 -18 91 7 38 18 65 28 72 17 10 65 5 237 -23 31 -6 33 -4
44 40 8 33 16 45 30 45 11 0 19 7 19 15 0 20 61 20 100 0 36 -19 74 -66 60
-75 -7 -4 -7 -15 -1 -31 9 -24 10 -24 16 9 8 34 35 45 35 14 0 -11 18 -35 40
-56 39 -35 53 -77 31 -91 -14 -8 -51 44 -44 62 12 32 -46 44 -75 16 -21 -21
-92 -56 -92 -45 1 15 36 52 60 61 25 10 25 10 -6 10 -49 1 -83 -55 -68 -114
l6 -25 47 39 c38 32 52 38 79 34 28 -5 36 -12 53 -54 12 -27 25 -49 29 -49 13
0 40 66 40 99 0 31 -32 71 -57 71 -7 0 -17 19 -23 43 -22 85 -33 109 -62 143
-24 27 -38 34 -67 34 -20 0 -49 -7 -65 -15z m108 -37 c13 -13 28 -34 31 -48
l7 -25 -23 21 c-32 29 -87 56 -99 49 -5 -3 -11 -1 -14 4 -4 5 2 12 11 14 39
10 63 6 87 -15z"/>
<path d="M1263 2039 c-15 -15 -5 -39 17 -39 21 0 44 25 35 40 -8 13 -38 13
-52 -1z"/>
<path d="M1191 2017 c-11 -14 -15 -37 -13 -73 2 -17 7 -20 26 -17 13 3 26 13
29 24 6 23 52 35 72 19 21 -17 19 -54 -4 -74 -16 -15 -18 -22 -9 -42 11 -23
11 -23 40 -6 71 41 97 103 58 142 -21 21 -80 28 -80 10 0 -5 -13 -10 -30 -10
-19 0 -30 5 -30 14 0 13 -20 26 -40 26 -4 0 -13 -6 -19 -13z m169 -47 c21 -18
22 -22 10 -46 -8 -14 -23 -30 -33 -36 -16 -8 -17 -7 -8 11 14 26 14 64 -1 79
-21 21 7 14 32 -8z"/>
<path d="M316 1908 c-14 -46 -13 -58 3 -58 9 0 22 -5 28 -11 14 -14 53 -2 53
15 0 40 -74 87 -84 54z"/>
<path d="M242 1876 c2 -15 -5 -31 -19 -42 -59 -50 -9 -124 83 -124 39 0 41 2
36 25 -3 16 -11 25 -23 25 -28 0 -53 44 -39 69 6 12 8 21 4 21 -3 0 -1 7 6 15
16 19 4 35 -26 35 -21 0 -25 -4 -22 -24z m10 -75 c-3 -21 2 -33 19 -45 18 -12
20 -16 7 -16 -18 0 -48 26 -48 41 0 11 19 49 24 49 1 0 1 -13 -2 -29z"/>
<path d="M2070 1845 c0 -8 -7 -15 -16 -15 -26 0 -13 -52 16 -67 21 -10 28 -10
40 3 16 16 6 44 -20 52 -7 3 -10 0 -6 -7 4 -6 3 -11 -3 -11 -6 0 -8 12 -4 30
3 17 3 30 -1 30 -3 0 -6 -7 -6 -15z"/>
<path d="M695 1387 c-92 -31 -131 -64 -164 -137 -24 -55 -39 -174 -22 -184 10
-7 17 50 12 92 -8 55 65 159 136 193 115 56 302 3 303 -86 0 -16 2 -17 10 -5
8 13 14 10 35 -15 50 -60 50 -62 -8 -79 -82 -26 -477 -126 -494 -126 -10 0
-13 -6 -9 -16 3 -9 6 -22 6 -30 0 -9 4 -13 9 -10 14 9 22 -65 8 -78 -7 -6 -36
-22 -65 -35 -50 -23 -132 -98 -132 -121 0 -5 -9 -10 -20 -10 -32 0 -77 -27
-83 -49 -3 -13 3 -31 15 -47 12 -15 17 -29 11 -32 -14 -11 -43 -55 -43 -68 0
-6 13 -14 30 -16 28 -4 30 -2 30 26 0 41 14 60 42 61 20 0 24 -6 28 -49 5 -53
16 -64 44 -43 17 12 17 15 -4 50 l-22 38 28 25 c29 28 29 28 59 -21 9 -14 12
-14 29 -2 19 14 19 16 -11 46 -17 17 -39 31 -47 31 -9 0 -16 4 -16 10 0 5 -11
15 -25 23 l-26 13 34 45 c42 54 134 109 143 85 3 -9 10 -14 14 -11 10 6 17
-23 26 -98 4 -32 11 -60 16 -63 5 -4 34 -3 64 1 l55 7 -3 61 -3 62 -65 -2
c-75 -3 -56 12 29 23 l50 6 4 -78 3 -79 2 83 2 82 -27 -1 c-16 0 -49 -4 -75
-8 -42 -7 -49 -5 -61 13 -8 13 -11 31 -7 46 7 25 7 25 11 -5 3 -19 9 -29 19
-28 8 1 101 9 205 18 105 9 200 20 211 25 18 7 22 19 26 77 3 37 4 70 2 71 -1
2 -104 -17 -227 -42 -123 -25 -231 -46 -240 -46 -11 0 -17 8 -17 25 0 20 7 26
38 34 85 22 332 84 399 101 63 15 73 15 78 2 7 -18 8 -17 -30 -29 -29 -10 -29
-10 13 -9 l42 1 0 42 c0 24 -4 43 -9 43 -5 0 -15 15 -22 33 -18 44 -95 125
-143 149 -50 26 -147 32 -201 15z m300 -413 c-5 -39 -9 -44 -38 -48 -74 -13
-370 -37 -383 -32 -8 3 -14 19 -14 39 0 33 1 34 63 46 34 6 132 27 217 45 176
37 169 39 155 -50z m-325 -164 c-10 -7 -11 -10 -2 -10 14 0 14 -57 0 -76 -11
-15 -53 -6 -70 15 -8 9 -20 29 -27 45 -11 26 -10 28 3 16 12 -9 16 -10 16 0 0
8 8 10 23 7 12 -4 29 -2 37 3 8 5 20 10 25 10 6 0 3 -5 -5 -10z m-312 -112
c16 -16 15 -23 -4 -42 -18 -19 -75 -21 -92 -4 -18 18 -15 46 6 51 34 9 78 7
90 -5z"/>
<path d="M2173 1393 c-15 -6 -17 -43 -3 -43 6 0 10 -12 10 -26 0 -23 -3 -25
-30 -19 -18 4 -30 3 -30 -4 0 -5 10 -11 22 -13 13 -2 24 -11 26 -22 4 -16 0
-18 -33 -12 -20 4 -43 10 -51 13 -8 3 -14 1 -14 -5 0 -11 33 -22 68 -22 16 0
22 -6 23 -22 1 -19 2 -20 6 -5 4 15 11 17 31 12 15 -3 37 -9 50 -12 12 -3 22
-1 22 5 0 6 -20 14 -46 18 -34 5 -44 10 -42 23 3 11 12 15 31 13 19 -2 27 2
27 13 0 9 -9 15 -25 15 -19 0 -23 4 -18 18 3 9 15 25 27 35 21 17 21 17 2 32
-20 15 -32 17 -53 8z"/>
<path d="M826 1298 c-9 -12 -16 -29 -16 -38 0 -27 30 -60 54 -60 48 0 75 70
40 104 -22 23 -60 20 -78 -6z"/>
<path d="M690 1253 c15 -21 21 -41 18 -60 -3 -22 0 -29 13 -30 15 -1 16 3 8
30 -5 18 -9 33 -9 34 0 1 12 4 28 6 l27 4 -29 2 c-17 0 -41 11 -54 24 l-25 22
23 -32z"/>
<path d="M576 1238 c-9 -12 -16 -29 -16 -38 0 -51 77 -83 100 -41 36 68 -42
140 -84 79z"/>
<path d="M1875 1232 c-12 -31 -4 -40 43 -47 47 -7 486 -91 530 -102 17 -4 22
-1 22 16 0 13 -8 23 -22 26 -13 3 -145 32 -295 63 -221 47 -273 56 -278 44z"/>
<path d="M1859 1143 c-6 -16 -19 -65 -30 -111 -11 -46 -28 -91 -39 -102 -23
-23 -33 -58 -27 -96 3 -21 4 -17 6 15 1 36 7 49 36 77 28 26 38 46 50 101 8
37 19 85 24 106 10 44 -4 51 -20 10z"/>
<path d="M2000 1133 c-46 -24 -77 -72 -91 -143 -11 -58 -12 -59 -50 -65 -21
-4 -42 -11 -45 -16 -3 -6 5 -7 23 -3 81 20 77 17 85 73 15 102 61 155 137 155
62 0 97 -23 112 -73 12 -39 11 -42 -18 -156 -5 -21 -32 -219 -32 -245 -1 -13
-16 -14 -98 -10 l-98 5 -3 128 c-2 116 -4 128 -20 123 -9 -3 -36 -10 -58 -15
-39 -10 -42 -14 -48 -54 -8 -52 8 -180 28 -228 41 -98 125 -149 247 -149 43 0
95 7 122 16 60 20 135 88 171 153 l27 51 -21 31 c-12 16 -20 32 -18 34 2 2 33
-39 68 -92 36 -53 78 -109 94 -125 16 -16 26 -31 23 -34 -3 -3 -37 -11 -76
-18 l-71 -12 53 -52 52 -52 101 123 101 122 -45 58 c-25 31 -47 57 -50 57 -2
0 -2 -27 0 -60 2 -33 1 -60 -4 -60 -4 0 -8 -11 -8 -25 0 -40 15 -29 31 23 17
54 33 61 37 17 2 -24 -9 -44 -58 -102 -33 -40 -60 -77 -60 -83 0 -6 -10 -4
-25 6 -30 19 -25 30 15 39 17 4 30 11 30 15 0 9 -108 151 -204 270 -25 30 -45
63 -46 73 0 9 -4 17 -10 17 -15 0 -12 -50 3 -50 6 0 20 -11 29 -24 17 -23 17
-25 -3 -50 -43 -54 -86 -19 -96 78 -5 47 -3 56 10 56 8 0 18 -6 20 -12 3 -7 6
-4 6 7 1 11 10 35 21 53 20 33 18 36 -15 22 -11 -5 -14 -9 -7 -9 19 -1 14 -21
-5 -21 -15 0 -16 -2 -3 -10 12 -8 12 -10 -2 -15 -17 -7 -104 13 -95 21 3 3 21
1 41 -4 20 -6 34 -7 31 -2 -3 5 -19 12 -36 15 -26 6 -30 10 -24 28 15 49 17
118 5 147 -24 57 -119 85 -180 53z m-115 -285 c3 -13 5 -63 3 -113 -2 -73 -6
-90 -19 -93 -23 -4 -38 40 -42 121 -3 54 0 70 12 77 14 9 14 11 1 20 -12 8 -9
10 12 10 20 0 29 -6 33 -22z m323 -50 c2 -38 11 -62 29 -86 23 -30 30 -33 68
-30 48 3 48 0 9 -64 -25 -39 -91 -95 -100 -85 -4 3 -9 26 -11 51 -4 32 -12 50
-27 60 -17 11 -23 25 -25 62 -1 30 3 50 11 55 11 7 11 9 0 9 -10 0 -10 5 2 22
9 12 16 27 16 33 0 5 -5 3 -10 -5 -6 -9 -10 -10 -10 -3 0 11 26 32 40 33 3 0
6 -24 8 -52z m-20 -240 c2 -43 -1 -68 -8 -68 -6 0 -10 26 -10 63 0 44 -3 58
-10 47 -7 -11 -12 -12 -18 -3 -4 7 -54 14 -126 19 l-119 7 7 -39 c4 -21 10
-48 13 -59 3 -13 2 -17 -5 -10 -8 8 -32 90 -32 110 0 3 69 4 153 3 l152 -3 3
-67z m-73 28 c31 -13 35 -19 35 -50 l0 -36 -75 0 c-84 0 -129 17 -141 52 -4
15 -1 25 12 35 24 17 126 17 169 -1z m376 -147 c32 -23 38 -39 12 -39 -20 0
-53 28 -53 47 0 18 7 17 41 -8z"/>
<path d="M1025 1090 c-11 -5 -15 -9 -10 -9 6 -1 10 -36 10 -88 0 -83 -1 -88
-25 -100 -14 -7 -53 -13 -88 -13 l-64 0 6 -27 c3 -16 8 -54 12 -85 l6 -57 -53
-4 c-30 -2 -2 -4 62 -5 135 -2 122 -13 134 121 6 60 11 77 21 73 8 -3 14 1 14
10 0 23 72 -18 122 -69 22 -23 46 -41 52 -39 6 1 -1 -9 -17 -22 -15 -14 -32
-36 -37 -48 -5 -13 -18 -34 -29 -48 -11 -14 -22 -35 -25 -46 -5 -17 -2 -23 19
-26 23 -5 25 -2 25 28 0 34 14 52 25 34 3 -5 15 -10 25 -10 25 0 35 -36 21
-73 -10 -25 -9 -27 14 -27 14 0 28 1 33 3 11 3 3 49 -13 73 -13 19 -11 22 13
34 24 10 29 9 49 -15 13 -14 23 -32 23 -40 0 -11 6 -11 30 3 37 21 34 30 -17
58 -30 16 -39 25 -32 35 23 37 -4 79 -50 79 -21 0 -34 9 -52 38 -28 44 -111
102 -145 102 -17 0 -24 6 -24 20 0 14 -5 18 -16 13 -12 -5 -15 -1 -11 13 8 26
20 124 15 123 -1 0 -12 -4 -23 -9z m-30 -230 c-11 -5 -41 -9 -67 -9 -47 -1
-47 -1 -50 -38 -3 -37 -4 -37 -8 10 l-5 47 75 -1 c51 0 69 -3 55 -9z m-55 -30
c0 -5 5 -10 11 -10 5 0 7 5 4 10 -3 6 3 10 14 10 22 0 25 -9 15 -59 -9 -42
-55 -69 -78 -45 -19 19 -22 84 -3 84 8 0 7 4 -3 10 -12 8 -9 10 13 10 15 0 27
-4 27 -10z m354 -76 c22 -21 20 -31 -10 -51 -34 -22 -74 -26 -81 -7 -9 24 13
62 39 67 13 2 26 5 30 6 4 0 14 -6 22 -15z"/>
<path d="M2048 1053 c-49 -13 -70 -121 -30 -153 29 -24 59 -15 83 24 28 46 21
104 -15 128 -12 8 -12 8 -38 1z m28 -55 c12 -18 14 -59 3 -53 -5 4 -9 1 -9 -4
0 -16 -30 -13 -36 2 -6 17 12 67 25 67 5 0 13 -5 17 -12z"/>
<path d="M2435 1017 c-4 -24 -7 -74 -8 -110 -2 -71 -6 -75 -51 -57 -14 5 -26
6 -26 2 0 -4 18 -13 40 -19 l40 -10 10 36 c16 58 25 201 12 201 -6 0 -14 -19
-17 -43z"/>
<path d="M2249 816 c6 -8 13 -27 14 -44 1 -17 7 -30 12 -29 6 1 9 -3 8 -9 -1
-6 5 -11 13 -11 12 0 12 3 -1 17 -9 10 -20 34 -26 54 -5 20 -15 36 -21 36 -7
0 -7 -4 1 -14z"/>
<path d="M2350 807 c0 -24 54 -85 63 -70 2 4 8 22 11 39 7 29 4 33 -25 43 -44
15 -49 14 -49 -12z"/>
<path d="M1986 768 c7 -49 30 -91 45 -83 14 9 36 55 44 93 l7 32 -51 0 -51 0
6 -42z m81 20 c-2 -7 -10 -30 -18 -50 -15 -43 -24 -47 -39 -19 -15 30 -12 41
13 42 16 1 18 2 5 6 -31 8 -21 33 13 33 21 0 30 -4 26 -12z"/>
<path d="M2561 791 c-10 -6 -1 -8 27 -4 36 5 45 2 72 -25 16 -17 30 -27 30
-22 0 4 -14 20 -31 34 -31 26 -72 33 -98 17z"/>
<path d="M2556 762 c-2 -4 13 -6 33 -4 32 3 42 -1 64 -28 15 -17 27 -28 27
-23 0 5 -13 21 -28 36 -27 26 -84 38 -96 19z"/>
<path d="M1745 684 c-19 -44 -46 -101 -59 -129 l-23 -50 -17 54 c-9 30 -16 63
-16 73 0 25 -10 23 -58 -13 l-42 -30 88 -103 c48 -56 97 -115 110 -130 12 -16
24 -27 25 -25 2 2 19 27 39 55 l36 52 -49 6 c-27 4 -49 11 -49 17 0 6 12 51
26 100 14 50 24 93 21 95 -7 8 -57 -153 -57 -185 0 -25 5 -31 35 -41 41 -14
44 -26 10 -42 -24 -11 -29 -8 -76 43 -110 119 -102 105 -86 135 l14 28 8 -24
c4 -13 14 -39 22 -59 l15 -36 26 50 c41 81 103 227 98 232 -3 3 -21 -30 -41
-73z m-135 -69 c0 -4 -7 -20 -16 -37 -14 -28 -17 -29 -26 -14 -7 13 -5 23 8
37 16 18 34 25 34 14z"/>
<path d="M1518 693 c-31 -33 -43 -80 -28 -114 9 -22 10 -22 5 7 -7 36 8 80 37
112 12 12 19 22 17 22 -3 0 -17 -12 -31 -27z"/>
<path d="M2438 682 c24 -33 128 -132 139 -132 4 0 -28 36 -72 80 -44 44 -81
80 -83 80 -2 0 5 -12 16 -28z"/>
<path d="M680 680 c0 -5 5 -10 11 -10 7 0 9 -10 5 -26 -6 -22 -4 -25 9 -20 9
3 41 6 71 6 47 0 54 3 54 20 0 10 8 24 18 29 12 8 -8 10 -75 11 -56 0 -93 -4
-93 -10z"/>
<path d="M1527 661 c-18 -31 -22 -87 -8 -110 5 -8 7 5 4 33 -5 38 -2 53 16 77
12 16 18 29 13 29 -4 0 -15 -13 -25 -29z"/>
<path d="M785 610 c-16 -4 -23 -8 -14 -9 14 -1 15 -7 6 -46 -6 -28 -7 -52 -1
-65 8 -17 12 -7 25 54 8 42 15 75 15 75 -1 -1 -14 -5 -31 -9z"/>
<path d="M656 570 c-41 -46 -45 -55 -15 -40 32 18 31 8 -7 -48 -38 -57 -37
-69 3 -22 14 17 27 29 29 27 3 -2 -9 -34 -26 -71 -16 -38 -30 -73 -30 -79 0
-5 34 36 76 92 75 101 91 140 36 88 -29 -28 -42 -27 -42 4 0 22 25 70 42 80 9
6 7 9 -8 9 -13 0 -37 -17 -58 -40z"/>
</g>
</svg>
