<?xml version="1.0" standalone="no"?>
<!DOCTYPE svg PUBLIC "-//W3C//DTD SVG 20010904//EN"
 "http://www.w3.org/TR/2001/REC-SVG-20010904/DTD/svg10.dtd">
<svg version="1.0" xmlns="http://www.w3.org/2000/svg"
 width="300.000000pt" height="434.000000pt" viewBox="0 0 300.000000 434.000000"
 preserveAspectRatio="xMidYMid meet">
<metadata>
Created by potrace 1.10, written by Peter Selinger 2001-2011
</metadata>
<g transform="translate(0.000000,434.000000) scale(0.100000,-0.100000)"
fill="#000000" stroke="none">
<path d="M1365 4334 c61 -2 396 -10 745 -18 349 -9 692 -18 763 -21 107 -4
127 -2 127 10 0 13 -26 15 -157 16 -87 0 -174 2 -193 3 -19 2 -341 5 -715 8
-374 3 -630 4 -570 2z"/>
<path d="M2279 4173 c14 -3 35 -12 48 -20 13 -8 23 -11 23 -6 0 13 -46 33 -73
32 -20 -2 -20 -2 2 -6z"/>
<path d="M1875 3423 c-65 -23 -69 -52 -10 -71 61 -20 200 -18 260 5 97 36 45
76 -105 80 -70 2 -108 -2 -145 -14z m102 -45 c-3 -20 -10 -23 -48 -26 -32 -2
-40 0 -29 8 11 7 12 10 2 10 -8 0 -12 9 -10 23 2 17 11 23 38 27 39 6 52 -6
47 -42z m93 46 c35 -8 51 -31 29 -45 -8 -5 -24 -7 -36 -4 -13 3 -23 1 -23 -4
0 -5 10 -11 23 -13 12 -2 -1 -6 -29 -9 l-50 -4 10 43 c10 45 16 48 76 36z"/>
<path d="M943 2972 c14 -408 16 -441 37 -439 14 1 16 5 10 17 -5 9 -8 36 -8
60 1 52 -11 376 -17 466 -5 76 10 104 52 96 15 -2 25 -1 20 3 -4 5 -29 10 -55
11 l-47 3 8 -217z"/>
<path d="M1120 3178 c0 -5 30 -7 68 -7 69 2 62 6 -20 11 -27 2 -48 0 -48 -4z"/>
<path d="M1260 3177 c3 -3 143 -9 310 -12 335 -7 408 -10 430 -19 13 -5 15
-38 13 -221 -1 -125 3 -215 8 -215 5 0 9 6 10 13 2 34 -3 442 -6 445 -5 6
-770 14 -765 9z"/>
<path d="M1540 3090 c-8 -5 -27 -10 -41 -10 -15 0 -29 -7 -33 -15 -3 -8 -15
-15 -26 -15 -11 0 -20 -6 -20 -14 0 -7 -11 -21 -25 -30 -14 -9 -25 -25 -25
-36 0 -11 -4 -20 -9 -20 -5 0 -19 -20 -32 -44 -20 -40 -21 -49 -10 -107 11
-63 32 -107 27 -54 -2 15 0 59 4 98 7 65 11 73 47 104 57 50 99 67 190 73 45
3 80 3 78 1 -2 -2 22 -23 55 -46 51 -38 60 -50 74 -97 8 -30 18 -76 21 -103
10 -79 15 -66 15 36 0 108 -5 119 -95 203 -57 54 -106 81 -135 73 -11 -3 -23
-1 -26 4 -7 11 -15 11 -34 -1z m33 -28 c11 -17 15 -15 -61 -34 -52 -13 -61
-14 -51 -2 6 8 21 14 33 15 21 0 21 1 1 10 -15 7 -11 7 14 3 28 -5 33 -3 28 9
-7 18 24 18 36 -1z"/>
<path d="M2 2723 c-1 -112 1 -203 6 -203 4 0 6 78 4 172 -4 250 -9 264 -10 31z"/>
<path d="M1526 2891 c-4 -5 -29 -12 -56 -16 -27 -4 -52 -10 -55 -15 -7 -11 21
-20 43 -14 10 3 6 -4 -11 -19 l-28 -24 31 5 c22 3 40 -2 60 -17 27 -19 60 -20
60 -1 0 10 -25 36 -47 49 -21 11 -10 39 19 51 17 6 18 9 6 9 -9 1 -19 -3 -22
-8z"/>
<path d="M1630 2875 c0 -8 7 -18 16 -22 12 -4 8 -9 -16 -21 -33 -16 -35 -30
-4 -46 10 -6 23 -15 27 -21 6 -6 10 -5 14 3 4 10 8 10 19 1 11 -9 17 -9 28 0
10 8 16 9 21 1 12 -20 -6 -31 -43 -25 -37 6 -37 6 -12 -9 14 -8 33 -15 42 -16
23 0 58 39 58 64 0 16 -3 18 -9 7 -7 -10 -13 -11 -31 -1 -13 7 -36 9 -56 5
-42 -7 -45 8 -5 25 22 9 35 9 53 0 22 -11 22 -10 4 4 -11 9 -23 16 -28 16 -4
0 -8 5 -8 11 0 8 11 9 32 5 29 -6 31 -5 18 8 -8 8 -39 17 -67 21 -45 5 -53 4
-53 -10z"/>
<path d="M1388 2768 c-23 -23 -23 -28 1 -28 10 0 21 -7 25 -15 7 -20 57 -19
82 1 18 15 18 15 -9 9 -30 -6 -61 10 -51 27 3 5 12 4 20 -3 11 -9 17 -9 28 0
10 8 16 9 21 1 3 -5 11 -10 17 -10 19 0 -12 28 -38 34 -16 4 -35 1 -49 -8 -18
-12 -24 -13 -27 -3 -2 9 -8 7 -20 -5z"/>
<path d="M1543 2718 c-15 -20 -23 -48 -14 -48 8 0 41 44 41 55 0 10 -18 5 -27
-7z"/>
<path d="M32 2694 c7 -7 879 -6 886 1 3 3 -196 5 -443 5 -247 0 -446 -3 -443
-6z"/>
<path d="M1819 2686 c12 -15 18 -113 7 -123 -3 -4 -1 -12 5 -19 7 -9 7 -19 -1
-33 -6 -12 -7 -21 -3 -21 4 0 -1 -6 -10 -12 -17 -13 -51 -97 -42 -106 17 -17
85 112 85 163 0 19 5 35 11 35 7 0 6 8 -4 23 -8 12 -13 37 -12 55 2 22 -2 32
-11 32 -8 0 -14 5 -14 10 0 6 -5 10 -11 10 -8 0 -8 -4 0 -14z"/>
<path d="M1334 2657 c-4 -12 5 -85 20 -156 10 -47 78 -131 105 -131 10 0 2 14
-22 38 -21 21 -38 49 -39 64 -1 15 -5 25 -9 23 -3 -3 -6 9 -7 25 0 16 -5 37
-10 47 -12 21 -12 23 -12 68 0 35 -16 48 -26 22z"/>
<path d="M1543 2653 c-17 -3 -21 -10 -19 -31 3 -25 6 -27 47 -24 94 5 102 8
104 30 1 15 -6 22 -24 25 -14 3 -27 1 -29 -3 -2 -5 -15 -5 -28 1 -14 5 -26 8
-27 8 -1 -1 -12 -4 -24 -6z"/>
<path d="M2040 2550 c0 -60 4 -110 9 -110 4 0 9 41 9 90 1 50 4 95 7 100 3 5
196 8 470 7 367 -2 465 1 465 11 0 9 -103 12 -480 12 l-480 0 0 -110z"/>
<path d="M2013 2560 c0 -47 2 -66 4 -42 2 23 2 61 0 85 -2 23 -4 4 -4 -43z"/>
<path d="M1533 2535 c-13 -5 -23 -16 -23 -24 0 -9 6 -11 23 -6 12 4 60 8 107
8 78 0 83 1 61 15 -26 18 -134 22 -168 7z"/>
<path d="M100 2528 c0 -4 24 -7 53 -7 54 1 49 5 -15 11 -21 2 -38 0 -38 -4z"/>
<path d="M967 2486 c3 -17 7 -32 7 -33 1 -1 7 11 13 27 9 24 8 29 -8 33 -15 4
-17 0 -12 -27z"/>
<path d="M5 2450 c3 -36 10 -218 16 -405 6 -187 12 -342 15 -344 2 -2 1 134
-3 302 l-6 306 114 4 114 3 -117 2 -118 2 0 83 c0 45 -5 89 -10 97 -7 10 -9
-5 -5 -50z"/>
<path d="M1551 2476 c-16 -19 5 -26 74 -26 60 0 94 23 50 34 -14 4 -33 2 -43
-3 -9 -4 -26 -5 -37 0 -28 11 -31 11 -44 -5z"/>
<path d="M977 2363 c-4 -3 -7 -54 -7 -112 0 -82 3 -102 12 -93 8 8 11 37 9 85
-2 39 -4 84 -4 100 -1 30 -1 30 -10 20z"/>
<path d="M1333 2341 c-3 -12 -9 -21 -14 -21 -5 0 -9 -5 -9 -12 0 -6 11 -1 24
12 l25 23 6 -26 c4 -14 4 -30 1 -35 -3 -5 4 -32 15 -61 10 -29 17 -56 14 -62
-4 -5 1 -9 9 -9 30 0 27 -22 -5 -50 -36 -31 -115 -67 -126 -57 -3 4 -14 35
-24 69 -23 81 -24 57 -2 -47 17 -83 27 -98 54 -90 16 5 24 -20 55 -164 l5 -23
-103 7 c-57 4 -107 10 -112 13 -5 3 -36 4 -69 3 l-59 -2 6 28 c11 57 28 224
24 229 -6 6 -38 -199 -38 -244 0 -18 -5 -42 -10 -53 -7 -13 -7 -19 -1 -19 6 0
14 12 17 26 l7 27 96 -7 c172 -12 231 -19 231 -27 0 -5 -7 -6 -15 -3 -11 5
-13 2 -9 -10 9 -24 -22 -64 -52 -68 -24 -3 -26 -4 -11 -16 14 -12 19 -10 39
14 74 89 73 87 97 75 12 -7 24 -11 26 -9 5 5 26 224 30 308 2 49 -2 71 -15 90
-10 14 -21 36 -25 50 -4 14 -16 36 -27 49 l-19 25 31 19 c22 14 30 26 28 41
-2 17 -11 22 -46 24 -37 3 -44 0 -49 -17z m73 -301 c8 0 14 -8 14 -17 0 -15
-2 -16 -10 -3 -8 12 -10 12 -11 -5 0 -11 -3 -14 -6 -7 -2 6 -8 12 -12 12 -13
0 -4 -50 12 -68 7 -10 13 -28 12 -42 -1 -14 -2 -42 -3 -64 -2 -33 -4 -37 -17
-26 -8 7 -15 25 -15 39 0 15 -9 55 -21 89 -12 34 -18 69 -15 77 7 18 49 37 54
24 2 -5 10 -9 18 -9z"/>
<path d="M1816 2320 l-28 -5 22 -27 c12 -16 28 -28 36 -28 18 0 44 24 44 39 0
28 29 6 54 -39 15 -27 31 -50 36 -50 4 0 6 -9 3 -20 -4 -16 -2 -19 11 -14 9 3
16 1 16 -5 0 -6 9 -11 21 -11 11 0 17 5 14 10 -3 6 4 10 16 10 12 0 19 -3 16
-7 -4 -3 -2 -12 4 -19 9 -11 15 -9 29 9 18 22 18 22 15 -18 -2 -22 -6 -70 -10
-106 -6 -53 -4 -73 10 -103 24 -50 29 -39 14 29 -11 49 -10 65 5 126 24 90 17
99 -73 99 l-66 1 -44 69 c-48 76 -51 77 -145 60z"/>
<path d="M1280 2272 c-13 -9 -33 -25 -42 -34 -10 -10 -26 -18 -35 -18 -23 0
-143 -38 -157 -49 -6 -5 -29 -14 -51 -21 -54 -17 -135 -70 -167 -109 -26 -31
-85 -145 -154 -301 -24 -55 -35 -97 -39 -155 -7 -75 -13 -99 -49 -202 -9 -23
-14 -48 -11 -55 3 -7 -9 -40 -25 -73 -16 -33 -30 -55 -30 -48 0 9 -53 11 -230
6 -148 -3 -230 -2 -230 4 0 6 -11 8 -25 5 -14 -2 -25 -11 -25 -18 0 -16 21
-19 36 -4 6 6 9 -19 8 -68 -1 -65 0 -67 3 -14 l4 62 102 0 c56 0 159 3 230 6
100 5 127 4 127 -6 0 -7 14 -42 31 -78 16 -35 29 -66 27 -68 -2 -2 -47 -4
-101 -5 -75 -1 -97 -5 -97 -15 0 -19 196 -20 202 -2 3 9 8 9 19 0 79 -66 81
-67 158 -70 58 -3 91 1 138 17 34 12 64 21 65 21 7 0 -2 -289 -10 -355 -10
-74 -6 -135 9 -135 5 0 9 3 10 8 0 4 2 16 5 27 4 23 14 161 19 280 3 57 1 73
-6 55 -6 -19 -7 -14 -3 20 10 78 11 109 1 103 -5 -3 -13 1 -18 8 -7 11 -19 10
-71 -5 -35 -10 -88 -21 -118 -23 -47 -3 -62 1 -108 27 -43 25 -58 41 -78 83
-27 58 -30 87 -12 106 7 8 1 6 -13 -3 -27 -17 -45 -12 -28 8 28 33 76 125 66
129 -17 5 92 40 153 48 30 4 72 13 93 21 37 15 36 15 -60 15 -98 1 -149 -11
-183 -42 -32 -29 -16 20 19 60 31 35 33 36 46 19 14 -18 14 -18 15 1 0 11 -4
26 -9 34 -8 12 -12 12 -26 -2 -20 -21 -25 -21 -25 -2 0 8 9 23 19 32 11 9 17
21 14 26 -3 5 -5 38 -5 74 0 50 4 68 15 75 9 5 14 15 11 23 -4 8 1 18 10 21 9
4 16 14 15 23 -3 34 2 51 20 68 10 10 22 33 26 51 3 18 15 37 26 43 13 7 18
17 14 28 -3 10 -2 27 2 37 7 16 9 15 14 -11 6 -26 6 -25 4 8 -3 36 8 50 19 25
2 -7 4 -2 3 12 -1 17 5 28 21 35 12 5 22 13 22 17 0 4 35 28 78 53 42 25 84
50 92 55 15 8 75 28 155 49 33 9 105 61 105 77 0 6 -2 5 -30 -14z"/>
<path d="M1420 2263 c0 -34 62 -157 98 -197 15 -16 42 -35 60 -43 39 -16 82
-6 144 35 36 24 108 109 121 145 10 27 30 9 22 -21 -6 -23 -5 -24 11 -11 11 9
15 9 10 2 -4 -7 -2 -13 3 -13 20 0 11 39 -11 54 -12 9 -17 16 -10 16 6 0 12 4
12 10 0 22 -28 -4 -57 -53 -42 -69 -71 -95 -140 -123 -66 -27 -98 -30 -110
-11 -4 8 -16 18 -25 23 -36 20 -107 139 -108 181 0 12 -4 25 -10 28 -6 4 -10
-6 -10 -22z"/>
<path d="M1886 2141 c-4 -7 -13 -10 -19 -8 -7 3 -23 -5 -36 -17 -20 -18 -23
-18 -18 -3 11 29 0 19 -26 -25 -51 -88 -68 -162 -66 -295 1 -95 4 -123 14
-123 8 0 16 -3 18 -7 3 -5 -49 -8 -114 -8 -98 0 -116 2 -102 13 15 11 14 12
-8 12 -14 0 -34 7 -45 16 -18 15 -18 15 9 9 36 -7 34 1 -4 20 -24 13 -34 14
-45 5 -7 -7 -21 -9 -30 -6 -28 11 -60 -5 -78 -39 -10 -19 -26 -36 -35 -38 -11
-3 -9 -5 6 -6 12 0 24 5 26 12 4 10 6 10 6 0 1 -9 17 -13 46 -13 41 0 45 2 45
25 0 29 2 29 46 13 32 -11 32 -11 27 -68 -3 -32 -1 -65 5 -77 12 -21 6 -63 -9
-63 -5 0 -6 6 -3 14 7 18 -27 31 -38 14 -4 -7 -8 -26 -8 -42 0 -35 -15 -25
-25 16 -6 24 -3 29 19 38 30 11 31 12 11 50 -21 41 -40 48 -112 42 -99 -7 -84
-19 50 -38 26 -3 50 -10 52 -15 8 -11 -53 -41 -67 -33 -6 4 -39 9 -74 11 -54
3 -64 1 -64 -12 0 -9 4 -14 9 -11 15 10 132 -16 138 -30 3 -8 9 -11 14 -8 5 3
6 -1 3 -9 -3 -8 -1 -18 5 -22 12 -7 15 -45 4 -45 -18 1 -31 16 -34 40 -4 26
-15 28 -126 15 -19 -2 -36 2 -43 11 -16 18 -30 18 -30 -1 0 -24 31 -33 91 -28
63 6 109 -12 109 -43 0 -11 6 -15 19 -11 16 4 19 0 17 -27 -1 -17 -5 -36 -9
-43 -4 -6 -2 -15 3 -18 15 -9 -18 -34 -45 -35 -20 -1 -20 -1 -1 -12 15 -8 21
-8 24 0 2 7 10 12 18 12 10 0 11 -6 4 -25 -5 -14 -7 -25 -3 -25 3 0 -2 -9 -11
-19 -11 -12 -14 -21 -7 -26 6 -3 11 -13 11 -22 0 -9 -3 -13 -7 -10 -8 9 -63
-90 -63 -114 0 -10 5 -21 10 -24 7 -4 9 2 5 17 -3 15 3 33 20 53 18 22 25 25
25 13 0 -9 6 -19 13 -21 6 -3 3 -6 -8 -6 -17 -1 -17 -3 -5 -11 24 -16 30 -12
30 23 1 17 7 59 15 92 8 33 15 106 15 161 0 97 1 102 23 109 19 6 19 8 5 12
-13 3 -18 14 -17 36 l1 32 7 -30 c4 -20 9 -26 14 -17 19 28 25 8 20 -59 l-6
-72 29 8 c16 4 55 8 86 10 32 2 63 7 69 10 12 8 59 -14 59 -27 0 -5 -10 -6
-22 -1 -21 7 -81 7 -193 0 -33 -2 -40 1 -39 15 1 10 -2 15 -7 12 -14 -8 -10
-34 6 -40 22 -9 18 -41 -5 -54 -24 -13 -26 -38 -4 -47 9 -3 26 -16 39 -29 16
-16 30 -21 45 -17 19 5 21 3 16 -14 -11 -34 12 -42 82 -30 34 5 64 8 66 6 5
-5 23 -463 19 -468 -2 -2 -63 -5 -135 -5 -148 -1 -222 13 -216 42 3 14 19 18
78 23 80 6 225 36 250 51 20 12 -94 0 -129 -14 -14 -6 -64 -13 -109 -17 l-84
-7 7 66 c4 36 11 69 15 74 5 5 4 20 -1 34 -8 20 -5 29 13 49 21 22 29 24 118
23 122 -2 117 -2 94 15 -10 8 -33 15 -50 15 -16 0 -35 5 -40 10 -7 7 -27 7
-59 1 -28 -5 -52 -6 -55 -1 -3 5 -12 5 -19 1 -9 -6 -10 -11 -2 -15 15 -10 -5
-47 -22 -41 -8 4 -13 -8 -14 -37 -1 -24 -4 -89 -7 -145 -3 -60 -1 -105 4 -108
6 -4 10 -18 10 -33 0 -19 3 -23 9 -13 6 9 18 12 37 7 63 -14 113 -18 203 -17
83 1 97 4 116 24 19 19 21 32 19 96 -1 49 -7 77 -16 82 -10 7 -10 9 2 9 11 0
16 9 15 28 0 19 4 26 16 24 10 -1 19 7 22 19 4 16 3 19 -6 10 -17 -17 -37 -13
-37 9 0 11 5 20 10 20 6 0 10 5 10 11 0 6 -8 9 -19 6 -16 -4 -17 -1 -10 31 4
19 5 41 2 48 -3 8 3 17 12 20 9 4 13 10 8 13 -15 11 -43 60 -43 76 0 13 -11
16 -65 14 -71 -2 -97 7 -46 17 53 11 44 21 -15 16 -46 -4 -58 -1 -74 16 -10
11 -16 23 -13 26 4 3 -2 6 -11 6 -32 0 -10 25 40 44 36 14 76 20 151 20 56 1
105 4 109 9 9 8 -25 36 -44 37 -19 0 -86 32 -94 44 -5 7 -12 5 -20 -6 -7 -9
-29 -19 -48 -22 -19 -3 -50 -8 -69 -12 -25 -5 -32 -3 -29 6 5 15 17 23 68 44
l35 15 -32 -6 -33 -5 0 49 0 49 95 12 c112 14 128 10 183 -53 30 -35 39 -40
35 -23 -3 13 -11 29 -16 36 -6 8 -10 35 -10 60 1 26 -1 37 -4 24 -2 -12 -9
-20 -14 -17 -5 4 -6 -2 -2 -11 5 -14 3 -16 -11 -11 -10 4 -24 7 -32 7 -17 0
-19 58 -2 94 9 21 8 29 -5 44 -21 23 -24 117 -4 106 10 -6 10 -4 0 7 -7 7 -13
27 -13 44 0 28 4 33 39 43 53 16 99 15 154 -4 33 -11 47 -21 47 -34 0 -11 5
-22 10 -25 6 -3 10 -11 10 -16 0 -6 -4 -7 -10 -4 -6 3 -7 -1 -4 -10 4 -9 9
-14 12 -11 2 3 14 -11 25 -32 11 -20 26 -41 33 -45 8 -4 14 -19 14 -32 0 -13
5 -27 10 -30 13 -8 13 14 -1 55 -11 30 -10 34 12 51 l24 18 -38 -9 c-33 -7
-40 -5 -52 13 -7 12 -19 42 -25 67 l-11 45 -66 16 c-63 15 -95 14 -160 -6 -30
-10 -30 5 3 122 17 59 32 93 40 93 17 0 18 5 -5 -66 -10 -32 -21 -77 -24 -98
-6 -36 -5 -38 10 -24 8 9 17 27 18 41 2 13 7 32 13 43 5 10 17 45 26 76 20 68
30 77 50 45 13 -18 13 -30 4 -59 -13 -43 -1 -119 21 -126 9 -3 11 2 8 14 -3
11 -9 36 -13 57 -6 35 -5 37 20 37 17 0 26 5 26 16 0 8 -4 12 -10 9 -5 -3 -22
20 -38 51 -18 36 -32 53 -36 45z m-483 -438 c-13 -2 -23 -8 -23 -12 0 -4 -7
-16 -15 -27 -16 -20 -16 -18 0 31 3 9 15 14 32 14 24 -2 25 -2 6 -6z m342
-118 c0 -43 -3 -50 -21 -53 -18 -3 -20 1 -16 26 4 33 -12 50 -33 32 -8 -6 -29
-10 -47 -8 -24 2 -33 -1 -36 -14 -3 -15 4 -18 49 -18 29 0 49 -3 46 -7 -4 -3
-23 -6 -42 -5 -19 1 -35 -2 -35 -7 0 -13 -50 0 -50 13 -1 6 -7 -2 -15 -19 -13
-29 -14 -28 -12 35 2 63 3 65 29 65 14 0 30 4 34 8 5 4 40 6 79 5 l70 -3 0
-50z"/>
<path d="M2169 2116 c8 -10 27 -24 42 -32 19 -10 27 -20 24 -34 -2 -11 1 -23
7 -26 7 -5 9 0 6 14 -4 12 -3 22 1 22 15 0 31 -25 32 -49 1 -17 3 -20 6 -8 10
38 47 2 57 -56 6 -29 4 -37 -5 -31 -7 4 -10 3 -5 -4 3 -6 2 -13 -3 -17 -14 -8
-9 -45 6 -45 12 0 30 53 26 71 -1 3 5 6 14 6 34 0 -15 -145 -70 -209 -19 -22
-26 -50 -41 -163 -9 -76 -20 -143 -23 -151 -3 -8 -1 -14 5 -14 5 0 15 39 21
88 17 124 39 203 67 232 13 14 33 56 44 93 20 63 39 83 55 57 3 -5 24 -10 46
-10 29 0 39 4 39 16 0 13 -7 15 -43 10 -42 -7 -43 -6 -67 36 -14 24 -31 56
-39 71 -25 50 -119 120 -191 142 -23 7 -24 6 -11 -9z"/>
<path d="M1189 2083 c-6 -16 -22 -38 -37 -50 -15 -12 -22 -22 -17 -22 19 0 51
34 63 67 13 39 6 43 -9 5z"/>
<path d="M2912 2023 l-62 -4 2 -339 c2 -204 7 -341 12 -343 6 -1 10 113 9 297
-1 164 1 313 4 332 5 30 8 33 32 28 14 -4 30 -10 34 -14 5 -4 11 -46 14 -91
10 -164 21 -172 22 -16 1 96 5 146 11 142 6 -3 10 -1 10 4 0 6 -6 10 -12 9 -7
-1 -41 -3 -76 -5z"/>
<path d="M1991 1990 c0 -19 8 -59 18 -89 16 -49 22 -56 57 -68 21 -7 45 -11
53 -8 16 6 8 18 -17 21 -9 2 -26 5 -37 8 -11 2 -23 5 -26 5 -7 1 -10 10 -33
106 -12 49 -14 54 -15 25z"/>
<path d="M1497 1973 c-11 -10 -8 -53 3 -53 6 0 10 14 10 30 0 31 -2 35 -13 23z"/>
<path d="M2292 1902 c2 -46 -1 -83 -6 -85 -6 -2 -3 -6 6 -9 11 -5 18 0 21 13
3 10 2 17 -2 15 -4 -3 -8 27 -9 67 -2 39 -5 74 -8 77 -3 3 -4 -32 -2 -78z"/>
<path d="M2239 1934 c-11 -31 -8 -37 15 -28 17 7 23 54 6 54 -6 0 -15 -12 -21
-26z"/>
<path d="M432 1943 c37 -2 100 -2 140 0 40 1 10 3 -67 3 -77 0 -110 -1 -73 -3z"/>
<path d="M2638 1933 c28 -2 76 -2 105 0 28 2 5 3 -53 3 -58 0 -81 -1 -52 -3z"/>
<path d="M825 1889 c8 -24 64 -119 70 -119 9 0 -41 106 -58 123 -19 19 -19 18
-12 -4z"/>
<path d="M1288 1895 c-4 -4 -4 -13 -1 -21 3 -8 -2 -17 -11 -20 -9 -3 -16 -16
-15 -28 0 -14 2 -16 6 -6 3 8 12 23 20 32 14 16 15 57 1 43z"/>
<path d="M2672 1879 c-11 -17 -9 -19 13 -19 27 0 32 12 12 28 -10 8 -16 6 -25
-9z"/>
<path d="M2247 1884 c-3 -4 -3 -20 0 -36 l6 -30 -42 7 c-23 4 -41 3 -41 -2 0
-5 10 -9 23 -9 12 1 21 -4 20 -11 -2 -8 5 -8 24 2 20 11 26 22 27 49 1 35 -4
43 -17 30z"/>
<path d="M1635 1851 c-19 -32 -54 -142 -43 -139 6 2 22 37 34 76 20 68 23 85
9 63z"/>
<path d="M1870 1855 c5 -22 -1 -35 -15 -35 -8 0 -15 -7 -15 -15 0 -22 12 -18
34 11 14 20 16 28 6 37 -6 7 -11 8 -10 2z"/>
<path d="M2434 1829 c-12 -21 -50 -170 -44 -174 15 -9 32 25 43 84 10 55 27
83 27 46 0 -8 5 -15 10 -15 7 0 7 6 0 19 -14 28 -13 39 8 44 9 3 4 4 -11 4
-16 -1 -31 -5 -33 -8z"/>
<path d="M2610 1830 c20 -13 180 -13 180 0 0 6 -39 10 -97 10 -67 0 -93 -3
-83 -10z"/>
<path d="M2305 1775 c-25 -45 -13 -56 14 -12 23 37 25 47 13 47 -5 0 -17 -16
-27 -35z"/>
<path d="M2665 1799 l-50 -6 62 -1 c34 -1 64 2 68 7 3 6 -3 9 -12 8 -10 -1
-40 -5 -68 -8z"/>
<path d="M1834 1763 c-4 -10 -8 -22 -8 -28 -1 -5 -12 -12 -26 -15 -21 -5 -22
-7 -8 -13 10 -3 20 -2 23 4 4 5 9 7 13 5 11 -6 27 17 28 42 2 26 -11 29 -22 5z"/>
<path d="M2192 1738 c-6 -24 -13 -52 -14 -63 -2 -13 -12 -21 -31 -23 -15 -2
-27 -7 -27 -12 0 -7 58 4 65 12 5 7 25 122 21 125 -2 2 -8 -16 -14 -39z"/>
<path d="M2643 1773 c26 -2 68 -2 95 0 26 2 4 3 -48 3 -52 0 -74 -1 -47 -3z"/>
<path d="M2471 1727 c2 -21 -1 -41 -6 -45 -6 -4 -16 -15 -24 -24 -17 -23 2
-24 24 -2 9 9 19 14 22 10 7 -6 -28 -187 -42 -218 -5 -13 -3 -18 8 -18 18 0
23 15 33 93 11 94 24 83 65 -51 16 -52 19 -76 11 -81 -11 -7 -11 -35 1 -47 16
-16 5 -24 -28 -22 -19 1 -37 -1 -41 -5 -4 -4 5 -7 19 -7 34 0 102 -57 87 -75
-20 -24 -14 -101 11 -136 14 -22 17 -29 6 -20 -15 12 -17 11 -17 -13 0 -14 5
-26 10 -26 6 0 10 -7 10 -15 0 -8 4 -15 8 -15 10 0 33 -45 39 -73 10 -54 12
-55 178 -56 99 -1 155 2 155 8 0 7 -58 12 -152 13 l-153 3 -3 36 -3 36 77 6
c42 4 112 7 156 7 61 0 78 3 78 14 0 12 -27 14 -159 12 l-159 -3 -12 25 c-6
13 -9 26 -8 28 2 2 55 4 118 5 143 2 220 9 220 21 0 5 -78 8 -179 6 l-180 -3
-15 33 c-13 27 -14 39 -4 72 l13 40 120 1 c66 1 129 2 140 3 11 1 39 3 63 4
23 1 42 7 42 13 0 7 -59 10 -189 7 l-189 -3 -10 40 c-37 152 -125 439 -139
455 -3 3 -3 -12 -2 -33z"/>
<path d="M2591 1716 c10 -9 199 -15 199 -6 0 6 -42 10 -102 10 -56 0 -99 -2
-97 -4z"/>
<path d="M1186 1670 c15 -25 29 -46 30 -48 1 -2 15 4 31 13 15 9 19 14 9 10
-14 -4 -31 5 -59 32 l-40 38 29 -45z"/>
<path d="M732 1666 c6 -19 19 -37 29 -39 25 -7 24 5 -1 21 -11 7 -20 19 -20
26 0 8 -4 17 -9 20 -5 4 -4 -9 1 -28z"/>
<path d="M982 1673 c1 -18 5 -33 8 -33 11 0 -2 -205 -13 -212 -18 -12 -23 -10
-35 15 -10 21 -11 21 -11 2 -1 -12 -6 -26 -11 -31 -7 -7 3 -11 32 -12 61 -3
80 5 69 27 -6 10 -11 62 -12 116 -1 57 -7 112 -15 129 l-14 31 2 -32z"/>
<path d="M1829 1688 c-7 -62 -7 -88 1 -93 4 -3 10 20 12 50 1 30 0 55 -4 55
-5 0 -9 -6 -9 -12z"/>
<path d="M2770 1680 c0 -6 -25 -8 -69 -4 -43 4 -75 3 -87 -4 -15 -9 1 -11 72
-12 73 0 93 3 98 15 3 8 1 15 -4 15 -6 0 -10 -5 -10 -10z"/>
<path d="M865 1625 c4 -22 11 -48 17 -58 18 -35 17 -12 -3 43 -18 49 -19 51
-14 15z"/>
<path d="M1437 1634 c-3 -3 4 -17 16 -30 25 -29 32 -25 16 10 -12 26 -20 31
-32 20z"/>
<path d="M2450 1594 c-6 -14 -10 -32 -10 -39 0 -8 -11 -44 -24 -80 -13 -36
-22 -65 -20 -65 13 0 36 57 52 128 19 82 20 105 2 56z"/>
<path d="M1193 1590 c-3 -11 -12 -20 -19 -20 -8 0 -14 -9 -14 -20 0 -14 -5
-18 -17 -13 -10 3 -15 3 -11 -2 11 -11 -22 -63 -44 -68 -24 -7 -23 -27 1 -27
13 0 35 24 66 70 49 75 61 100 50 100 -4 0 -9 -9 -12 -20z"/>
<path d="M518 1593 c18 -2 45 -2 60 0 15 2 0 4 -33 4 -33 0 -45 -2 -27 -4z"/>
<path d="M223 1583 c32 -2 81 -2 110 0 29 2 3 3 -58 3 -60 0 -84 -1 -52 -3z"/>
<path d="M2983 1490 c0 -47 2 -66 4 -42 2 23 2 61 0 85 -2 23 -4 4 -4 -43z"/>
<path d="M845 1521 c-9 -16 16 -58 41 -70 30 -13 30 -10 -2 39 -29 43 -30 44
-39 31z"/>
<path d="M2074 1500 c5 -45 16 -49 16 -7 0 21 -4 37 -10 37 -5 0 -8 -14 -6
-30z"/>
<path d="M1745 1480 c-4 -6 -23 -8 -43 -6 -55 6 -93 -3 -90 -23 2 -10 -3 -15
-14 -13 -10 2 -18 -2 -18 -9 0 -8 10 -9 30 -5 19 3 29 2 25 -4 -3 -6 1 -10 10
-10 9 0 15 7 13 17 -2 10 4 19 14 21 11 2 18 -4 20 -19 5 -33 28 -36 28 -4 0
16 4 24 11 19 6 -3 9 -17 6 -29 -3 -20 2 -25 36 -33 22 -6 46 -8 53 -5 21 8
17 34 -6 40 -11 3 -24 20 -30 39 -11 33 -32 44 -45 24z m35 -49 c15 -28 13
-33 -10 -21 -11 6 -20 17 -20 25 0 21 17 18 30 -4z"/>
<path d="M1945 1461 c-7 -23 -16 -26 -32 -10 -7 7 -12 -3 -16 -37 -4 -40 0
-54 30 -105 20 -33 36 -59 37 -60 0 0 24 -2 51 -4 28 -2 42 -2 33 1 -13 4 -18
16 -18 42 l-1 37 -14 -32 c-8 -18 -18 -33 -23 -33 -17 0 -32 27 -30 51 2 19
-1 23 -16 21 -17 -3 -18 1 -13 37 4 32 2 41 -10 41 -8 0 -12 4 -8 10 3 5 12 7
19 4 9 -3 15 5 19 23 6 34 1 43 -8 14z"/>
<path d="M1055 1411 c-36 -22 -62 -50 -66 -71 -6 -35 53 -122 70 -104 3 4 0 9
-6 11 -7 3 -13 13 -13 23 0 9 -7 23 -15 30 -24 20 -18 38 33 85 49 47 48 58
-3 26z"/>
<path d="M2400 1384 c-19 -14 -35 -26 -37 -27 -1 -2 27 1 62 7 43 6 65 14 65
23 0 7 -6 13 -14 13 -8 0 -20 2 -28 4 -7 2 -29 -7 -48 -20z"/>
<path d="M2880 1389 c0 -5 23 -9 50 -9 37 0 50 -4 50 -14 0 -11 -14 -16 -47
-19 l-48 -3 57 -2 56 -2 -7 28 c-7 25 -12 27 -59 29 -29 1 -52 -3 -52 -8z"/>
<path d="M2440 1353 c-85 -13 -91 -33 -9 -33 53 0 93 15 84 31 -6 9 -28 10
-75 2z"/>
<path d="M705 1340 c-17 -7 -16 -9 10 -9 17 0 37 4 45 9 12 8 10 10 -10 9 -14
0 -34 -4 -45 -9z"/>
<path d="M1310 1335 c0 -11 55 -54 69 -55 10 0 4 11 -14 30 -25 27 -55 40 -55
25z"/>
<path d="M1833 1310 c0 -16 3 -30 6 -30 3 0 16 -3 29 -6 30 -9 29 13 -4 42
-14 13 -26 24 -28 24 -1 0 -3 -13 -3 -30z"/>
<path d="M2111 1298 c0 -20 -3 -43 -6 -51 -5 -12 4 -12 57 -4 35 5 74 15 88
22 40 21 182 30 236 15 34 -10 48 -10 57 -1 6 6 7 11 1 11 -5 0 -49 7 -99 14
-49 8 -94 10 -100 6 -5 -4 -21 -11 -35 -14 -24 -7 -24 -6 -6 8 16 13 17 16 4
16 -8 0 -21 -7 -28 -15 -7 -8 -21 -15 -31 -15 -11 0 -19 -4 -19 -10 0 -5 -11
-10 -25 -10 -19 0 -26 7 -34 33 -6 21 -10 25 -10 12 -1 -11 -8 -31 -16 -45
-15 -27 -21 -20 -28 35 -4 27 -4 27 -6 -7z"/>
<path d="M2850 1320 c0 -3 27 -6 59 -5 32 0 54 3 48 8 -14 8 -107 6 -107 -3z"/>
<path d="M762 1314 c-1 -6 -18 -32 -37 -57 -37 -48 -45 -68 -20 -47 8 7 22 10
30 6 20 -7 37 36 32 78 -2 17 -5 26 -5 20z"/>
<path d="M1225 1290 c-10 -11 -36 -25 -57 -31 -32 -8 -37 -13 -28 -24 23 -28
109 21 110 63 0 17 -4 15 -25 -8z"/>
<path d="M629 1282 c-23 -24 -41 -61 -36 -75 3 -10 67 73 67 87 0 11 -15 5
-31 -12z"/>
<path d="M797 1294 c-3 -3 -1 -15 6 -25 13 -21 61 -26 87 -9 12 8 9 10 -11 10
-15 0 -32 7 -39 15 -13 16 -32 20 -43 9z"/>
<path d="M2340 1265 c0 -5 95 -55 105 -55 3 0 5 4 5 9 0 5 -19 19 -43 30 -42
20 -67 26 -67 16z"/>
<path d="M2479 1212 c32 -34 57 -53 59 -45 2 7 -11 27 -28 44 -40 40 -33 47
15 14 45 -30 60 -32 43 -5 -15 23 -68 43 -90 35 -9 -4 -19 -2 -23 4 -3 6 -12
11 -20 11 -7 0 13 -26 44 -58z"/>
<path d="M1615 1250 c3 -6 34 -10 68 -10 34 0 72 -3 85 -6 l23 -7 -28 -29 -28
-29 26 9 c14 6 41 19 59 31 l34 20 -27 10 c-38 15 -220 24 -212 11z"/>
<path d="M2030 1181 c17 -27 30 -63 31 -82 0 -31 1 -32 9 -11 14 33 2 75 -31
110 -42 44 -44 40 -9 -17z"/>
<path d="M825 1190 c-16 -17 -24 -30 -19 -30 13 0 59 48 52 55 -2 3 -17 -9
-33 -25z"/>
<path d="M1565 1210 c-14 -6 -3 -9 43 -11 34 -1 70 -3 79 -3 9 -1 18 5 21 12
4 14 -110 16 -143 2z"/>
<path d="M2224 1199 c-10 -12 -18 -23 -16 -25 6 -11 1 -24 -11 -24 -16 0 -20
-67 -5 -76 6 -4 8 1 4 13 -5 16 1 24 27 36 30 15 32 19 29 56 -2 23 -5 41 -7
41 -1 0 -10 -9 -21 -21z"/>
<path d="M2861 1197 c-1 -15 -10 -17 -71 -15 l-70 3 1 -30 c1 -24 3 -25 6 -7
4 20 10 22 68 22 58 0 64 -2 68 -22 4 -23 4 -23 6 -1 1 14 9 23 24 26 22 4 22
4 0 6 -12 0 -24 9 -26 19 -4 16 -5 16 -6 -1z"/>
<path d="M2110 1169 c0 -11 -4 -17 -10 -14 -5 3 -10 2 -10 -4 0 -17 22 -24 31
-10 12 19 11 49 -1 49 -5 0 -10 -9 -10 -21z"/>
<path d="M875 1162 c-16 -11 -37 -27 -45 -37 -9 -12 -1 -8 21 8 20 15 43 27
52 27 10 0 17 5 17 10 0 14 -11 12 -45 -8z"/>
<path d="M2417 1163 c10 -26 45 -73 55 -73 5 0 4 9 -2 19 -8 16 -6 22 7 29 14
8 12 12 -15 26 -40 21 -53 20 -45 -1z"/>
<path d="M157 1153 c67 -4 72 -5 82 -31 l9 -27 1 33 1 32 -82 -2 -83 -2 72 -3z"/>
<path d="M2270 1093 c-21 -8 -60 -44 -60 -57 0 -6 5 -5 12 2 7 7 19 12 28 12
23 0 80 29 80 41 0 10 -35 11 -60 2z"/>
<path d="M115 1049 c-46 -7 -41 -9 30 -15 28 -2 62 -6 78 -8 21 -4 27 -2 27
12 0 15 -8 18 -47 18 -27 -1 -66 -4 -88 -7z"/>
<path d="M1886 1014 c-3 -9 -6 -34 -6 -57 l1 -42 14 40 c17 46 19 75 6 75 -5
0 -12 -7 -15 -16z"/>
<path d="M385 936 c3 -27 5 -104 5 -172 0 -84 4 -124 11 -124 6 0 9 7 6 15 -4
8 -7 74 -8 147 -1 73 -6 144 -10 158 -6 17 -7 10 -4 -24z"/>
<path d="M2780 970 l-75 -6 83 -2 c49 -1 82 2 82 8 0 6 -3 9 -7 8 -5 -1 -42
-4 -83 -8z"/>
<path d="M2898 973 c-30 -8 -20 -22 20 -28 20 -3 47 -8 60 -11 19 -4 21 -2 11
9 -7 7 -28 12 -47 10 -47 -3 -32 9 21 18 l42 6 -45 1 c-25 0 -53 -2 -62 -5z"/>
<path d="M1675 928 c-27 -14 -75 -60 -75 -70 0 -4 9 -8 20 -8 11 0 20 4 20 9
0 5 10 11 23 14 37 10 59 31 51 50 -7 20 -12 20 -39 5z"/>
<path d="M64 845 c0 -49 1 -71 3 -48 2 23 2 64 0 90 -2 26 -3 8 -3 -42z"/>
<path d="M1864 900 c-23 -37 -33 -60 -22 -54 8 5 9 2 5 -9 -13 -34 3 -16 18
20 16 38 16 68 -1 43z"/>
<path d="M838 775 c-2 -69 0 -125 5 -125 4 0 7 8 7 18 0 9 2 65 4 125 2 59 0
107 -4 107 -5 0 -10 -56 -12 -125z"/>
<path d="M1441 884 c14 -18 93 -18 134 0 28 12 23 13 -58 13 -73 1 -86 -2 -76
-13z"/>
<path d="M10 834 c0 -97 20 -715 26 -769 l5 -50 147 2 c232 2 838 22 1172 38
168 8 366 17 440 20 74 3 281 12 460 21 179 8 418 15 533 15 205 -1 207 0 207
21 l0 21 -287 -7 c-159 -4 -387 -11 -508 -16 -796 -35 -1684 -70 -1880 -76
-190 -5 -233 -9 -250 -23 -19 -16 -20 -15 -3 4 10 12 16 32 13 45 -2 14 -6 99
-9 190 -7 183 -14 260 -27 276 -10 12 -15 55 -24 224 -8 126 -15 157 -15 64z
m2895 -704 c-7 -12 -42 -12 -70 0 -15 6 -8 9 28 9 30 1 46 -3 42 -9z"/>
<path d="M2690 855 c-7 -9 -9 -22 -5 -32 5 -10 7 -26 6 -35 -1 -10 3 -18 8
-18 6 0 11 5 11 10 0 6 10 10 23 11 20 1 20 2 -5 12 -40 15 -38 47 3 47 26 0
29 -3 24 -20 -9 -28 14 -26 24 3 5 12 7 25 4 30 -8 13 -80 7 -93 -8z"/>
<path d="M2828 863 c18 -2 45 -2 60 0 15 2 0 4 -33 4 -33 0 -45 -2 -27 -4z"/>
<path d="M1610 795 c-36 -8 -75 -11 -87 -8 -28 6 -73 -4 -73 -17 0 -6 12 -10
28 -10 34 0 242 37 250 44 9 9 -48 5 -118 -9z"/>
<path d="M67 743 c-9 -8 -7 -110 3 -188 6 -50 8 -38 8 68 0 70 -1 127 -2 127
-2 0 -6 -3 -9 -7z"/>
<path d="M1705 723 c-117 -26 -195 -46 -191 -50 3 -3 53 -2 111 2 82 5 103 10
96 19 -7 9 -7 16 1 24 7 7 10 11 8 11 -3 -1 -14 -3 -25 -6z"/>
<path d="M390 583 c0 -21 -4 -43 -8 -49 -16 -23 -75 -36 -171 -38 -95 -2 -123
-8 -107 -23 3 -4 23 -1 43 6 21 8 38 10 40 5 4 -12 87 -10 143 4 50 12 70 33
70 73 0 15 3 34 6 43 3 9 1 16 -5 16 -6 0 -11 -17 -11 -37z"/>
<path d="M1367 415 c-5 -11 -10 -38 -12 -60 l-5 -40 16 34 c8 18 14 45 12 60
-3 24 -4 24 -11 6z"/>
<path d="M2545 400 c-3 -11 -13 -20 -21 -20 -8 0 -14 -4 -14 -10 0 -16 18 -12
40 10 21 21 26 40 11 40 -5 0 -13 -9 -16 -20z"/>
<path d="M914 348 c3 -15 33 -34 42 -26 3 4 4 15 0 24 -5 13 -9 14 -20 5 -10
-8 -16 -9 -19 -1 -3 6 -5 6 -3 -2z"/>
<path d="M970 299 c0 -5 9 -9 20 -9 19 0 20 -7 20 -90 l0 -90 -77 -1 c-74 -1
-201 -15 -158 -18 11 0 117 4 235 9 245 11 862 37 1115 46 94 4 171 8 173 10
2 1 2 12 0 24 -3 21 -3 21 -24 2 -12 -11 -26 -17 -32 -13 -11 7 -50 6 -302 -3
-91 -3 -228 -8 -305 -11 -233 -9 -369 -16 -393 -20 -19 -3 -167 -8 -198 -6 -5
1 -11 16 -12 34 -1 17 -3 41 -5 52 -6 30 11 45 54 45 22 0 39 5 39 10 0 6 -22
10 -49 10 -28 0 -52 4 -55 9 -8 12 -46 21 -46 10z"/>
<path d="M2870 276 c0 -2 16 -16 36 -31 25 -19 39 -24 46 -17 7 7 -2 17 -30
31 -41 21 -52 25 -52 17z"/>
<path d="M2817 200 c-4 -15 -15 -18 -68 -19 -120 0 -434 -13 -439 -18 -9 -9
665 9 680 18 10 5 -1 7 -30 5 -25 -2 -54 1 -64 6 -10 6 -31 14 -46 18 -23 7
-29 5 -33 -10z"/>
<path d="M110 78 c0 -9 429 -1 440 9 2 2 -96 3 -218 2 -135 -1 -222 -5 -222
-11z"/>
</g>
</svg>
