<?xml version="1.0" standalone="no"?>
<!DOCTYPE svg PUBLIC "-//W3C//DTD SVG 20010904//EN"
 "http://www.w3.org/TR/2001/REC-SVG-20010904/DTD/svg10.dtd">
<svg version="1.0" xmlns="http://www.w3.org/2000/svg"
 width="300.000000pt" height="375.000000pt" viewBox="0 0 300.000000 375.000000"
 preserveAspectRatio="xMidYMid meet">
<metadata>
Created by potrace 1.10, written by Peter Selinger 2001-2011
</metadata>
<g transform="translate(0.000000,375.000000) scale(0.100000,-0.100000)"
fill="#000000" stroke="none">
<path d="M1765 3483 c-11 -21 -19 -44 -18 -50 0 -7 -3 -10 -8 -8 -4 3 -16 -7
-26 -22 -9 -15 -30 -45 -46 -65 -15 -21 -26 -42 -23 -47 4 -5 1 -13 -5 -17 -8
-4 -9 -3 -5 5 4 6 -46 -42 -110 -106 -65 -65 -118 -122 -119 -128 0 -5 -9 -9
-18 -8 -10 0 -16 -2 -13 -5 10 -9 -31 -32 -47 -27 -7 3 -19 0 -25 -8 -9 -10
-3 -53 23 -178 19 -90 35 -180 35 -199 0 -20 6 -44 13 -55 7 -11 19 -40 26
-64 9 -30 16 -40 23 -33 12 12 1 55 -13 47 -5 -4 -9 1 -9 9 0 9 5 16 10 16 7
0 7 7 0 20 -9 17 -7 24 12 40 13 11 30 17 38 14 8 -4 24 -9 35 -12 18 -5 18
-4 6 11 -7 9 -20 17 -28 17 -13 0 -13 3 -3 15 15 18 22 65 9 65 -5 0 -12 -12
-15 -27 -4 -16 -11 -34 -17 -40 -10 -14 -27 -8 -27 8 0 6 4 8 9 5 5 -4 7 3 4
14 -8 30 -26 12 -19 -20 3 -19 1 -30 -9 -34 -17 -6 -23 30 -13 84 1 8 -1 53
-6 100 -7 71 -13 89 -34 110 -32 33 -56 69 -49 76 3 3 30 -17 61 -45 31 -28
78 -62 106 -76 71 -36 184 -76 191 -67 10 11 18 82 10 82 -5 0 -15 -9 -22 -20
-15 -22 -55 -31 -79 -19 -8 4 -46 22 -83 40 -37 18 -79 46 -93 62 -22 25 -24
33 -15 51 7 12 33 35 58 51 42 26 73 56 157 149 17 19 24 36 20 48 -3 10 0 18
6 18 6 0 8 -4 5 -10 -3 -5 -1 -10 4 -10 6 0 11 3 11 8 0 4 13 23 29 42 17 19
39 46 50 60 l20 25 1 -35 c0 -19 -5 -51 -10 -70 -6 -19 -11 -52 -12 -73 -1
-37 -3 -39 -29 -33 -16 3 -31 1 -35 -5 -3 -6 -13 -8 -21 -5 -16 7 -73 -32 -73
-50 0 -6 -6 -17 -14 -23 -23 -19 -13 -122 13 -140 12 -7 21 -20 21 -27 0 -8
10 -14 25 -14 14 0 25 -4 25 -9 0 -5 18 -8 40 -7 22 0 40 4 40 8 0 5 11 8 25
8 15 0 25 6 25 15 0 8 9 19 21 25 11 6 18 17 16 23 -2 7 2 20 11 29 12 14 12
21 3 32 -7 8 -10 20 -6 26 4 6 0 19 -8 28 -7 9 -17 25 -20 35 -4 9 -13 17 -21
17 -22 0 -25 23 -10 86 7 33 23 107 34 166 11 59 23 114 26 122 13 33 -23 15
-41 -21z m-264 -363 c-41 -39 -79 -70 -85 -70 -6 1 0 10 14 21 14 12 49 43 78
70 29 27 56 49 60 49 4 -1 -26 -32 -67 -70z m216 10 c49 -29 66 -63 61 -115
-7 -55 -20 -73 -75 -97 -38 -17 -46 -17 -75 -5 -48 21 -70 50 -76 103 -4 34
-1 50 10 58 8 6 17 18 20 27 6 17 63 48 88 49 8 0 29 -9 47 -20z"/>
<path d="M1644 3095 c-4 -8 -12 -15 -20 -15 -8 0 -14 -7 -14 -15 0 -8 9 -15
20 -15 16 0 20 -7 20 -35 0 -23 -5 -35 -14 -35 -19 0 -29 -30 -12 -36 8 -3 33
-4 57 -2 32 2 45 8 47 21 2 10 -3 17 -12 17 -13 0 -16 13 -16 65 0 63 -1 65
-25 65 -14 0 -28 -7 -31 -15z"/>
<path d="M390 3501 c-22 -6 -18 -9 25 -16 28 -4 62 -7 78 -6 24 2 27 -1 27
-28 0 -34 -2 -36 -30 -21 -12 6 -21 7 -25 0 -7 -11 -67 -1 -77 14 -4 6 -1 17
5 25 10 12 7 13 -18 7 -153 -38 107 -94 309 -67 99 13 130 25 122 47 -3 8 -1
14 4 14 16 0 23 -42 8 -56 -22 -23 -150 -44 -274 -47 -62 -1 -114 -5 -114 -9
0 -14 192 -9 280 7 47 8 86 15 88 15 9 0 -1 -40 -15 -60 l-17 -25 24 16 c30
19 46 50 55 106 6 40 5 43 -25 58 -21 11 -29 12 -24 4 5 -9 2 -10 -11 -5 -51
19 -351 40 -395 27z m320 -32 c0 -9 -33 -35 -53 -42 -10 -4 -43 -4 -73 -1 -49
6 -54 9 -54 31 0 24 1 24 90 21 49 -2 90 -6 90 -9z"/>
<path d="M309 3471 c-35 -28 -20 -32 20 -4 19 13 27 23 19 23 -9 0 -26 -9 -39
-19z"/>
<path d="M114 3435 c-23 -35 -31 -177 -14 -231 26 -82 72 -121 189 -159 l53
-17 -6 -38 c-7 -47 16 -62 48 -31 18 18 18 23 6 47 l-15 26 -6 -23 c-6 -21 -7
-22 -8 -3 -1 11 -7 26 -13 33 -11 12 -9 13 7 7 18 -6 18 -5 5 7 -8 8 -36 22
-62 31 -51 19 -81 52 -92 102 -11 49 7 80 49 88 21 4 39 6 41 4 2 -2 10 -33
17 -69 7 -35 20 -76 28 -90 8 -15 28 -53 46 -85 17 -33 45 -72 62 -88 21 -20
31 -39 31 -59 0 -20 6 -30 20 -34 26 -7 25 -26 -3 -59 l-24 -27 20 -51 c12
-34 22 -97 29 -186 11 -152 16 -185 26 -175 11 11 -3 221 -24 343 -5 28 -3 32
18 33 21 1 21 1 -4 9 -46 14 -49 19 -31 48 23 35 33 42 63 42 20 0 29 -8 42
-37 15 -36 15 -39 -4 -56 -13 -13 -16 -22 -9 -31 7 -9 7 -31 0 -72 -5 -32 -12
-117 -14 -189 -4 -104 -8 -131 -20 -133 -8 -2 -15 1 -15 7 0 18 -52 -10 -85
-46 -20 -22 -40 -33 -57 -33 -20 0 -32 -8 -43 -30 -19 -36 -19 -40 0 -40 9 0
18 7 21 15 7 17 35 20 50 6 5 -5 38 -12 74 -15 62 -5 63 -5 20 5 -68 16 -90
27 -90 45 0 12 5 15 23 9 12 -4 56 -9 97 -10 l75 -3 -67 6 c-58 6 -101 23 -87
36 2 2 41 1 87 -2 65 -4 82 -8 78 -18 -4 -10 3 -14 25 -14 45 0 31 -23 -22
-37 -24 -6 -35 -12 -23 -12 11 -1 43 6 70 14 47 14 63 10 64 -17 0 -9 30 -11
30 -3 0 4 -7 19 -15 35 -11 22 -23 30 -43 30 -19 0 -39 12 -65 40 -20 22 -43
40 -50 40 -25 0 -1 299 32 396 17 51 17 52 -6 78 -28 33 -29 52 -3 59 14 3 20
14 20 32 0 17 15 43 40 72 22 25 40 50 40 55 0 5 16 34 35 63 24 35 41 77 51
126 8 41 17 75 19 77 1 2 19 0 40 -4 42 -8 58 -36 48 -86 -10 -54 -39 -85
-103 -110 -33 -12 -60 -26 -60 -30 0 -4 8 -4 18 -1 15 6 15 5 3 -10 -7 -9 -11
-26 -8 -37 3 -11 1 -18 -4 -14 -5 3 -9 15 -9 27 l0 21 -16 -22 c-25 -37 2 -81
41 -66 11 5 13 16 9 44 l-6 38 53 17 c160 52 206 118 197 280 -5 89 -26 139
-56 133 -13 -2 -18 -16 -20 -55 -4 -63 -33 -93 -91 -93 -20 0 -60 -9 -89 -20
-29 -11 -67 -20 -85 -20 -22 0 -28 -3 -18 -9 7 -5 23 -6 35 -3 18 5 19 3 8
-11 -8 -9 -20 -13 -29 -10 -13 5 -14 0 -8 -28 8 -40 25 -62 25 -34 0 11 9 35
20 53 25 41 64 42 67 2 1 -14 0 -18 -3 -7 -3 9 -11 17 -19 17 -7 0 -19 -8 -26
-17 -11 -15 -11 -16 1 -5 8 6 18 12 23 12 13 0 3 -100 -11 -109 -5 -3 -13 -23
-17 -43 -4 -23 -11 -35 -18 -31 -5 3 -7 1 -3 -5 3 -6 -2 -17 -12 -24 -10 -7
-26 -24 -35 -38 -9 -13 -17 -20 -18 -15 0 6 -12 -15 -27 -45 -31 -62 -62 -83
-100 -69 -32 12 -53 39 -46 60 2 9 -3 22 -12 30 -26 21 -51 86 -64 164 -6 39
-16 77 -21 85 -8 12 -9 10 -4 -7 15 -56 24 -138 15 -147 -6 -6 -11 -4 -14 5
-2 8 -13 41 -25 75 -31 91 -27 134 9 102 12 -11 12 -10 1 5 -19 24 -39 21 -43
-5 -3 -14 -6 -6 -9 20 -3 32 -1 41 8 37 7 -2 44 -7 81 -9 l67 -5 -57 9 c-31 5
-74 17 -95 26 -21 9 -54 16 -73 15 -57 -3 -88 28 -92 92 -4 61 -26 74 -54 32z
m36 -19 c0 -7 3 -28 7 -46 5 -26 3 -32 -8 -28 -8 3 -13 15 -11 28 3 17 0 21
-12 17 -17 -7 -20 1 -10 27 8 20 34 21 34 2z m870 10 c0 -2 3 -11 6 -20 4 -11
1 -16 -10 -16 -9 0 -16 -6 -16 -14 0 -9 7 -12 20 -9 16 4 20 0 20 -20 0 -14
-6 -27 -14 -30 -11 -4 -24 -65 -29 -141 -2 -22 -49 -76 -67 -76 -9 0 -7 8 4
25 9 13 16 32 16 41 0 12 3 14 13 6 10 -9 12 2 12 54 -1 36 1 67 4 69 4 2 6
33 5 69 -2 59 0 66 17 66 10 0 19 -2 19 -4z m-857 -186 c-4 -31 -3 -41 5 -36
8 4 12 0 12 -11 0 -10 9 -35 20 -56 12 -21 15 -37 9 -37 -14 0 -70 60 -65 69
2 3 -2 35 -10 71 -17 80 -12 102 15 68 15 -19 18 -34 14 -68z m45 58 c17 9 9
-15 -8 -26 -17 -11 -20 -10 -20 7 0 11 -4 23 -10 26 -5 3 -10 11 -10 17 0 6 9
3 21 -8 12 -10 24 -18 27 -16z m754 -19 l-4 -27 -20 20 c-14 14 -17 23 -9 28
24 15 37 7 33 -21z m-354 -985 c26 -8 3 -20 -42 -23 -43 -2 -63 9 -51 28 5 9
59 6 93 -5z"/>
<path d="M2120 3458 c0 -2 47 -99 105 -216 94 -191 112 -242 84 -242 -5 0 -9
-17 -9 -38 0 -34 -4 -39 -45 -61 -90 -48 -179 -173 -192 -272 -5 -32 -3 -39
11 -39 10 0 14 5 11 10 -3 6 2 10 12 10 16 -1 15 -3 -6 -20 -12 -11 -27 -17
-32 -14 -5 3 -9 -7 -9 -22 0 -26 0 -27 20 -9 11 10 23 15 28 11 4 -4 -3 -16
-15 -26 -13 -10 -23 -28 -23 -40 l0 -22 20 23 c12 16 19 19 20 10 0 -8 -7 -22
-16 -32 -20 -22 -10 -58 37 -131 41 -64 90 -105 167 -141 191 -89 420 -8 517
182 28 56 33 83 13 63 -7 -7 -13 -20 -13 -30 0 -12 -9 -18 -30 -20 -27 -2 -28
-1 -13 11 10 8 15 17 11 20 -11 12 19 37 43 37 18 0 24 6 24 22 0 20 -1 20
-18 5 -23 -21 -32 -21 -32 -2 0 17 36 39 50 30 6 -4 10 6 10 21 l0 28 -20 -22
c-27 -29 -44 -29 -29 -1 6 12 20 24 31 27 17 4 18 10 12 46 -19 119 -104 239
-202 288 -46 23 -47 25 -44 64 2 27 -2 45 -12 53 -13 11 -1 40 89 222 58 115
105 211 105 214 0 3 -46 5 -103 5 l-103 0 -62 -126 -61 -126 44 -89 c25 -49
51 -89 59 -89 11 0 26 -20 26 -35 0 -2 -18 6 -41 17 -22 10 -53 19 -67 18 -15
-1 -47 -2 -72 -1 -42 1 -46 3 -68 44 -12 23 -22 45 -22 49 0 4 -27 62 -59 130
-85 177 -85 180 -16 180 61 0 71 -9 120 -107 45 -90 69 -124 81 -113 2 3 -21
60 -53 126 l-58 121 -102 0 c-57 1 -103 0 -103 -1z m596 -41 c3 -2 -10 -36
-28 -73 -18 -38 -31 -72 -30 -76 1 -4 -10 -24 -24 -45 -14 -21 -28 -51 -31
-66 -3 -16 -12 -31 -19 -34 -8 -3 -14 -14 -14 -25 0 -30 -22 -17 -57 36 -31
46 -45 94 -23 81 6 -4 10 5 10 19 0 14 5 26 11 26 5 0 7 5 4 10 -3 6 -1 10 4
10 6 0 11 5 11 12 0 25 55 120 74 129 21 9 102 6 112 -4z m-148 -450 l3 -28
-53 7 -53 7 19 -22 c11 -11 16 -24 13 -27 -9 -10 -37 16 -37 33 0 12 -10 14
-47 11 -27 -2 -54 -6 -62 -9 -16 -4 -26 23 -17 47 5 12 26 14 118 12 l113 -3
3 -28z m-130 -39 c19 -19 14 -24 -27 -25 -24 -1 -44 4 -51 13 -10 11 -9 14 7
14 10 0 25 -6 32 -12 11 -11 13 -10 8 5 -7 20 13 23 31 5z m106 -11 c15 -24
-3 -35 -20 -13 -8 11 -14 24 -14 29 0 13 22 3 34 -16z m-205 -25 c-28 -5 -50
15 -30 27 8 6 21 3 33 -8 19 -16 19 -16 -3 -19z m249 14 c12 -28 5 -41 -15
-25 -14 13 -18 49 -5 49 5 0 14 -11 20 -24z m52 -38 c0 -17 -3 -18 -15 -8 -8
7 -15 21 -15 32 0 17 3 18 15 8 8 -7 15 -21 15 -32z m-49 -10 c114 -53 180
-153 187 -283 5 -105 -20 -175 -89 -246 -171 -175 -464 -117 -550 110 -29 78
-24 194 13 266 26 51 93 121 139 146 86 46 209 49 300 7z m109 -11 c12 3 23
-34 14 -48 -4 -8 -11 -5 -18 9 -6 11 -15 21 -21 21 -5 0 -11 13 -13 28 -2 27
-2 27 13 8 9 -11 20 -19 25 -18z m50 -67 c0 -16 -4 -30 -10 -30 -11 0 -14 43
-3 53 11 12 13 8 13 -23z m30 -40 c0 -11 5 -20 10 -20 6 0 10 -11 10 -25 0
-16 -6 -25 -16 -25 -11 0 -14 6 -9 21 5 15 4 19 -4 15 -7 -5 -11 4 -11 23 0
17 5 31 10 31 6 0 10 -9 10 -20z m40 -89 c0 -10 -7 -24 -15 -31 -13 -10 -15
-9 -15 12 0 14 3 28 7 31 12 13 23 7 23 -12z m-717 -13 c-13 -12 -25 -19 -29
-15 -10 10 16 37 34 37 13 0 12 -4 -5 -22z m719 -60 c-21 -21 -32 -3 -15 22
16 22 18 23 21 6 2 -10 -1 -23 -6 -28z m-42 -223 c-13 -16 -50 -21 -50 -7 0
15 13 22 38 22 21 0 22 -2 12 -15z m-590 -45 c0 -10 -4 -21 -9 -25 -12 -7 -25
31 -16 45 9 15 25 2 25 -20z m564 11 c7 -10 -17 -21 -46 -21 -17 0 -18 3 -8
15 14 17 46 20 54 6z m-528 -36 c8 -21 -6 -41 -17 -24 -12 19 -11 39 1 39 6 0
13 -7 16 -15z m484 -5 c0 -6 -7 -13 -15 -16 -20 -8 -48 3 -40 16 8 13 55 13
55 0z m-442 -38 c4 -25 -13 -30 -22 -6 -9 25 -7 36 7 32 6 -3 13 -14 15 -26z
m400 0 c3 -10 -4 -13 -24 -10 -15 2 -29 9 -32 16 -3 10 4 13 24 10 15 -2 29
-9 32 -16z m-360 -20 c4 -25 -13 -30 -22 -6 -9 25 -7 36 7 32 6 -3 13 -14 15
-26z m296 12 c24 -9 19 -24 -8 -24 -26 0 -40 12 -29 24 8 8 17 8 37 0z m-246
-33 c4 -27 -12 -21 -29 10 -9 18 -8 20 8 17 10 -2 19 -14 21 -27z m46 3 c16
-16 21 -34 9 -34 -10 0 -43 32 -43 42 0 13 17 9 34 -8z m166 1 c10 -12 9 -15
-8 -15 -11 0 -25 7 -32 15 -10 12 -9 15 8 15 11 0 25 -7 32 -15z m-110 -10 c7
-9 10 -19 6 -22 -8 -9 -38 9 -44 25 -5 17 23 15 38 -3z m57 0 c9 -25 -2 -27
-28 -6 l-24 20 23 1 c12 0 25 -7 29 -15z"/>
<path d="M2370 2772 c0 -25 -31 -52 -58 -52 -20 0 -22 -5 -22 -50 l0 -50 40 0
40 0 0 -95 0 -95 -41 0 -40 0 3 -52 3 -53 157 0 158 0 0 52 0 52 -37 3 -38 3
3 178 3 177 -85 0 c-77 0 -86 -2 -86 -18z m147 -1 c2 -1 4 -79 5 -173 l3 -173
30 -3 c35 -4 45 -16 45 -54 l0 -28 -145 0 c-131 0 -145 2 -146 18 0 9 -2 27
-3 40 -2 19 2 22 36 22 l38 0 0 105 0 105 -40 0 c-40 0 -40 0 -40 39 0 35 3
39 31 45 22 4 34 14 42 37 l12 31 65 -5 c36 -3 66 -6 67 -6z"/>
<path d="M2145 2588 c7 -17 54 -38 86 -38 30 0 67 -21 72 -42 3 -11 10 -17 17
-13 21 13 -32 61 -70 63 -47 3 -71 11 -93 30 -16 15 -17 14 -12 0z"/>
<path d="M2588 2520 c-39 -42 -49 -64 -23 -54 8 3 20 19 27 34 7 16 26 35 43
44 22 11 25 15 11 15 -11 1 -36 -17 -58 -39z"/>
<path d="M293 3389 c3 -23 13 -49 22 -58 16 -15 17 -14 11 12 -6 26 -5 27 41
28 l48 1 -36 12 c-21 6 -46 19 -56 29 -30 26 -36 21 -30 -24z"/>
<path d="M580 3251 c41 -4 81 -10 88 -14 6 -5 12 -4 12 1 0 16 -29 22 -103 20
l-72 -1 75 -6z"/>
<path d="M464 3203 c-13 -13 -15 -29 -11 -77 6 -72 44 -179 59 -170 6 4 8 2 5
-4 -9 -14 1 -39 19 -46 12 -4 14 14 14 104 0 61 -3 110 -7 110 -5 0 -7 -31 -6
-69 1 -55 -2 -69 -12 -64 -17 6 -49 53 -41 60 3 3 -1 15 -9 27 -21 28 -20 110
1 127 14 11 19 10 35 -10 11 -13 19 -32 19 -44 0 -11 3 -18 6 -14 16 16 -22
87 -46 87 -5 0 -16 -8 -26 -17z"/>
<path d="M610 3183 c-8 -17 -15 -80 -18 -156 -4 -111 -2 -127 11 -121 18 6 65
107 72 155 l6 34 -14 -36 c-7 -19 -21 -46 -30 -60 -9 -13 -17 -31 -17 -41 0
-9 -4 -19 -8 -22 -5 -3 -9 45 -8 107 1 90 5 118 19 140 9 15 14 27 9 27 -5 0
-15 -12 -22 -27z"/>
<path d="M668 3198 c7 -7 13 -32 14 -57 1 -39 2 -41 5 -12 6 42 -4 81 -19 81
-9 0 -9 -3 0 -12z"/>
<path d="M1673 2748 c2 -7 10 -12 18 -11 10 2 14 -10 16 -44 1 -39 -3 -50 -28
-75 -16 -16 -29 -26 -29 -22 0 4 -10 -2 -22 -13 -13 -11 -58 -39 -101 -62 -44
-22 -87 -51 -97 -64 -19 -22 -19 -22 -34 -2 -8 11 -17 17 -21 13 -10 -9 14
-50 26 -43 5 4 9 2 9 -3 0 -17 -13 -21 -31 -11 -28 15 -25 -15 4 -38 29 -22
50 -73 74 -179 16 -67 16 -83 5 -93 -8 -8 -11 -23 -7 -41 5 -23 2 -31 -17 -41
-29 -15 -98 -85 -98 -99 0 -56 346 -59 367 -4 6 17 -59 90 -89 100 -14 4 -18
14 -16 40 3 42 -18 66 -50 57 l-23 -6 22 -11 c12 -6 24 -16 26 -23 6 -17 -41
-27 -74 -16 -36 12 -44 43 -11 43 14 0 19 3 11 8 -7 4 -15 28 -19 52 -9 61
-34 152 -47 168 -6 7 -10 33 -10 56 0 36 5 49 29 70 49 44 53 46 68 46 8 0 16
3 18 8 2 4 21 16 42 27 22 11 45 25 51 30 6 6 21 16 33 23 18 10 22 10 22 -2
0 -8 -8 -17 -18 -20 -10 -4 -19 -14 -18 -24 0 -80 -18 -107 -53 -80 -14 12
-15 11 -2 -5 8 -10 22 -16 32 -14 27 7 12 -18 -19 -33 -27 -13 -34 -15 -60
-18 -7 -1 -11 -6 -8 -11 4 -5 0 -12 -6 -15 -7 -4 -2 -4 12 0 45 10 53 9 58 -5
2 -8 0 -11 -5 -8 -5 3 -10 0 -10 -8 0 -8 3 -15 7 -15 4 0 5 -11 2 -25 -2 -14
-8 -25 -13 -25 -5 0 -9 -13 -9 -29 0 -16 -4 -31 -9 -33 -14 -5 -20 -88 -6 -88
7 0 25 47 42 113 28 105 32 144 13 132 -5 -3 -11 -2 -13 3 -3 4 5 12 18 18 19
9 22 8 18 -6 -3 -10 0 -21 6 -24 6 -4 12 -4 13 1 2 14 8 57 12 98 2 22 9 54
16 70 6 17 11 31 11 33 -4 14 3 18 25 14 34 -6 28 20 -6 28 -19 4 -20 7 -8 17
9 8 19 9 28 3 20 -13 50 -12 50 0 0 6 -13 13 -29 16 -20 4 -28 11 -24 20 3 8
11 14 18 14 15 0 50 38 42 46 -3 3 -15 1 -26 -6 -19 -9 -21 -8 -21 15 0 23 -4
25 -41 25 -28 0 -39 -4 -36 -12z m67 -38 c0 -11 -7 -20 -15 -20 -15 0 -21 21
-8 33 12 13 23 7 23 -13z m-167 -698 c9 -8 17 -21 17 -29 0 -7 10 -13 23 -13
12 0 30 -9 39 -19 15 -18 15 -20 -5 -26 -12 -4 -24 -8 -27 -9 -25 -11 -110
-17 -153 -12 -68 9 -86 20 -71 43 9 15 24 18 90 16 54 -2 73 0 59 6 -11 5 -33
10 -50 10 -37 2 -60 15 -50 31 18 29 95 31 128 2z"/>
<path d="M340 2147 c0 -5 5 -17 10 -28 10 -18 23 -19 218 -19 213 0 232 3 232
40 0 13 -29 15 -230 15 -126 0 -230 -4 -230 -8z"/>
<path d="M501 1931 c-7 -5 -21 -6 -31 -4 -12 3 -22 -3 -29 -16 -7 -12 -21 -21
-31 -21 -13 0 -20 -7 -20 -19 0 -10 -7 -24 -16 -32 -9 -7 -13 -21 -10 -32 3
-11 0 -29 -5 -40 -8 -13 -8 -22 0 -30 6 -6 11 -21 11 -34 0 -12 9 -27 19 -33
11 -5 23 -19 26 -30 5 -14 12 -19 24 -15 10 3 25 -3 36 -15 12 -14 22 -17 34
-11 22 12 48 -8 56 -42 9 -33 -9 -42 -56 -29 -27 7 -33 13 -31 32 2 19 0 21
-13 10 -8 -7 -15 -28 -15 -46 0 -19 -4 -34 -9 -34 -6 0 -21 -10 -35 -22 -13
-13 -34 -31 -46 -41 -54 -46 13 -80 160 -80 64 0 111 6 143 17 52 19 68 16 48
-8 -17 -20 -136 -46 -211 -46 -38 0 -59 -4 -55 -10 8 -13 142 -13 150 1 4 6
14 8 22 5 8 -3 27 1 42 8 17 10 32 11 42 5 25 -16 29 -10 29 41 0 44 -3 51
-27 64 -16 8 -40 25 -55 39 -15 14 -33 27 -40 29 -7 3 -12 17 -10 35 1 19 -5
36 -18 48 -19 17 -19 19 -3 37 9 10 24 16 34 13 12 -4 19 1 24 15 3 11 15 25
26 31 12 6 18 16 16 24 -3 7 1 22 9 34 11 15 12 26 5 39 -6 10 -8 28 -5 39 3
11 -1 25 -10 32 -9 8 -16 22 -16 32 0 12 -7 19 -20 19 -10 0 -24 9 -30 20 -6
11 -20 19 -33 19 -12 0 -31 2 -42 5 -11 4 -26 2 -34 -3z m84 -37 c58 -39 75
-66 75 -119 0 -58 -24 -101 -69 -124 -83 -43 -160 -14 -196 73 -14 34 -16 50
-9 53 7 2 10 13 7 23 -3 12 1 22 11 26 9 3 16 15 16 25 0 11 10 24 23 30 12 5
33 16 47 24 26 15 62 11 95 -11z m-13 -411 c9 -8 14 -21 11 -29 -4 -10 3 -14
26 -14 20 0 34 -7 41 -20 11 -21 5 -44 -10 -35 -5 3 -11 1 -15 -5 -9 -14 -195
-7 -223 8 -18 10 -20 17 -12 31 9 17 19 19 92 14 80 -5 105 4 36 13 -62 9 -79
15 -75 27 11 34 94 40 129 10z"/>
<path d="M490 1855 c0 -8 -7 -15 -15 -15 -8 0 -15 -9 -15 -20 0 -13 7 -20 20
-20 17 0 20 -7 20 -45 0 -38 -3 -45 -20 -45 -13 0 -20 -7 -20 -20 0 -18 7 -20
65 -20 58 0 65 2 65 20 0 12 -7 20 -17 20 -16 0 -18 9 -15 80 l4 80 -36 0
c-25 0 -36 -4 -36 -15z"/>
<path d="M2220 1839 c-30 -5 -70 -17 -90 -27 -33 -16 -35 -19 -33 -63 l3 -47
-48 -13 c-26 -7 -52 -15 -59 -17 -7 -2 -13 10 -15 30 -2 28 -7 33 -28 33 -20
0 -26 -6 -28 -26 -3 -23 3 -29 38 -43 22 -9 54 -16 71 -16 35 0 73 -33 94 -83
l14 -32 1 30 c0 17 -7 43 -16 60 -8 16 -12 40 -9 53 5 20 11 23 33 19 15 -2
35 -8 45 -12 12 -5 17 -3 17 7 0 8 -17 20 -38 26 -21 7 -46 20 -55 30 -15 16
-15 20 -2 39 15 21 87 43 144 43 25 0 28 -3 23 -25 -2 -14 0 -25 7 -25 5 0 8
7 5 15 -4 8 -1 15 5 15 6 0 11 6 11 14 0 8 10 17 23 19 44 8 -59 4 -113 -4z"/>
<path d="M2328 1824 c6 -3 12 -13 12 -21 0 -12 3 -13 14 -4 15 12 196 12 196
0 0 -4 -12 -17 -27 -29 -25 -19 -36 -21 -98 -15 -38 3 -73 11 -77 18 -5 8 -8
7 -8 -5 0 -14 -10 -16 -67 -13 -66 4 -88 16 -78 44 4 10 -1 12 -22 6 -37 -9
-50 -22 -36 -36 34 -34 290 -50 422 -28 82 14 104 25 97 47 -5 13 -2 12 9 -2
8 -11 15 -23 15 -27 0 -14 -29 -30 -79 -42 -28 -6 -51 -14 -51 -18 0 -6 81 -1
88 6 3 3 11 0 19 -6 19 -16 16 -53 -8 -93 -16 -27 -18 -39 -10 -55 19 -34 11
-158 -9 -146 -4 3 -15 -11 -24 -30 -9 -19 -24 -35 -32 -35 -8 0 -19 -11 -24
-25 -6 -15 -17 -25 -30 -25 -11 0 -25 -9 -32 -20 -7 -11 -20 -20 -29 -20 -9 0
-24 -9 -35 -21 l-19 -21 -6 24 c-3 12 -2 36 2 51 7 25 6 27 -7 16 -12 -9 -14
-23 -10 -50 5 -28 2 -38 -10 -43 -24 -9 -27 -8 -21 14 3 11 1 20 -5 20 -5 0
-7 10 -3 23 6 21 6 21 -9 3 -9 -11 -15 -34 -15 -50 l1 -31 7 30 7 30 5 -31 c3
-18 1 -31 -5 -31 -6 0 -19 -4 -28 -8 -12 -5 -18 -1 -21 17 -2 13 -3 8 -1 -9 2
-23 -2 -33 -11 -33 -7 0 -22 -11 -33 -25 -27 -34 -32 -32 -26 13 3 30 2 33 -6
17 -9 -18 -10 -17 -7 7 3 17 -1 29 -10 32 -10 4 -12 13 -7 28 8 27 8 68 -1
109 -5 24 -3 29 12 30 15 0 15 2 -3 9 -28 11 -42 32 -17 24 17 -5 17 -5 0 9
-30 25 9 31 40 7 14 -11 35 -20 47 -20 14 0 7 7 -22 20 l-43 20 49 47 c46 45
72 93 50 93 -5 0 -6 6 -3 13 4 6 -3 1 -14 -12 -12 -13 -21 -31 -21 -41 0 -10
-6 -23 -14 -29 -12 -10 -15 -8 -19 11 -2 13 -3 9 -1 -8 2 -27 -1 -33 -24 -38
-15 -3 -37 -14 -50 -24 -21 -17 -22 -20 -9 -52 8 -19 18 -60 21 -91 7 -54 6
-59 -24 -93 -37 -41 -66 -46 -81 -13 -8 18 -4 40 16 102 44 131 50 145 57 145
13 0 9 49 -8 88 -9 20 -18 31 -21 25 -6 -16 -33 -17 -33 -2 0 5 -4 7 -10 4
-17 -11 -11 -24 20 -40 39 -20 38 -36 -7 -151 -45 -112 -45 -112 -67 83 -14
125 -36 206 -53 201 -4 -1 -23 1 -40 5 -35 7 -47 37 -15 37 14 0 14 2 3 9 -20
13 -51 -5 -51 -28 0 -24 18 -38 55 -43 25 -2 31 -9 41 -43 7 -22 13 -79 13
-127 1 -115 18 -229 43 -297 25 -65 104 -155 154 -173 42 -15 44 -28 3 -23
-41 5 -33 -16 11 -31 45 -15 59 -38 66 -113 4 -34 13 -69 21 -77 16 -16 63
-19 63 -4 0 6 -6 10 -13 10 -23 0 -44 33 -50 77 -3 23 -12 56 -21 74 -9 18
-16 39 -16 49 0 9 -6 22 -12 28 -10 10 -10 17 0 33 7 11 10 28 7 38 -4 13 3
24 20 35 14 9 25 23 25 31 0 8 8 15 18 15 9 1 28 8 42 16 14 8 17 13 7 10 -11
-3 -15 -2 -12 4 3 6 17 10 30 10 12 0 25 6 28 14 8 20 68 26 100 9 16 -8 34
-12 40 -10 7 2 -5 9 -25 16 -44 15 -49 28 -13 37 14 3 30 15 36 25 5 11 16 19
24 19 8 0 20 8 27 18 22 31 54 43 98 36 32 -5 44 -13 52 -33 43 -114 -3 -177
-70 -95 -32 39 -33 74 -1 74 11 0 19 4 19 9 0 10 -25 21 -48 21 -15 0 -15 -2
-2 -11 12 -9 11 -10 -6 -6 -15 3 -20 -1 -19 -14 1 -10 4 -21 8 -25 3 -3 2 -14
-3 -23 -16 -30 -31 -134 -20 -145 17 -17 25 3 25 67 l0 62 29 -32 c15 -18 37
-33 47 -33 10 0 19 -4 19 -8 0 -14 -43 -50 -72 -61 -18 -7 -28 -18 -28 -31 0
-24 -16 -57 -37 -79 -9 -8 -12 -24 -8 -41 5 -22 0 -33 -30 -59 -20 -17 -39
-32 -43 -32 -4 -1 -17 -3 -29 -4 -35 -4 -83 -26 -77 -36 9 -15 48 -10 79 11
17 11 36 20 44 20 8 0 22 6 30 14 14 13 16 11 15 -20 -1 -22 -9 -41 -24 -54
-29 -25 -33 -25 -20 -1 19 37 10 44 -13 10 -28 -40 -20 -61 21 -50 32 9 61 60
62 109 0 18 5 43 11 54 7 13 7 24 1 30 -5 5 -7 20 -4 34 3 18 11 24 32 24 37
0 123 70 156 126 42 71 54 129 64 296 11 186 24 228 69 228 20 0 34 7 41 21
14 26 -3 50 -34 48 -17 -1 -17 -2 -3 -6 9 -2 17 -8 17 -13 0 -12 -26 -31 -33
-23 -4 3 -16 -2 -28 -13 -12 -10 -24 -17 -27 -14 -9 8 -30 -65 -37 -127 -13
-122 -29 -224 -35 -228 -4 -3 -13 15 -20 40 -7 26 -17 42 -23 38 -6 -3 -7 -1
-3 5 4 6 2 21 -4 33 -10 17 -8 25 11 45 32 34 12 52 -24 24 -31 -24 -31 -24
-16 18 7 20 21 34 40 41 21 7 27 14 22 27 -6 15 -7 15 -18 1 -7 -10 -16 -12
-24 -7 -10 6 -9 10 5 19 11 6 15 11 10 11 -5 0 -18 -7 -28 -17 -17 -15 -18
-15 -18 1 0 26 30 73 54 85 12 5 43 13 69 16 60 8 93 36 77 65 -12 22 -49 27
-51 8 -1 -7 -2 -22 -3 -33 -1 -21 -4 -21 -76 -7 -34 7 -35 9 -35 55 0 47 -16
72 -40 63 -6 -2 -38 2 -71 9 -59 12 -282 20 -256 9z m353 -442 c7 -20 6 -21
-23 -15 -24 5 -29 3 -23 -7 5 -9 4 -11 -3 -6 -9 5 -7 14 5 31 21 28 33 27 44
-3z m-683 -17 c5 -69 41 -186 68 -223 41 -54 68 -82 80 -82 20 0 42 -34 35
-54 -7 -17 -9 -17 -28 8 -12 14 -25 26 -30 26 -18 0 -82 76 -101 120 -34 80
-54 214 -35 233 9 10 9 11 11 -28z m806 -27 c-17 -129 -46 -209 -95 -263 -31
-34 -79 -48 -79 -23 0 6 3 9 6 6 7 -8 45 31 82 84 27 38 45 94 67 206 10 48
26 39 19 -10z m-610 -190 c8 -54 8 -90 0 -97 -7 -7 -34 28 -34 43 0 6 7 2 15
-8 20 -26 19 -6 -1 22 -19 27 -38 29 -31 2 7 -27 -5 -25 -33 5 l-23 25 32 11
c17 6 36 20 42 30 14 28 26 16 33 -33z"/>
<path d="M1475 1614 c-60 -46 -112 -84 -116 -84 -4 0 -64 20 -135 44 -71 24
-130 43 -132 41 -2 -2 17 -60 42 -129 25 -69 46 -131 46 -138 0 -7 -39 -64
-86 -127 l-85 -113 76 4 c64 3 74 1 69 -12 -46 -112 -42 -322 8 -413 20 -36
17 -46 -13 -52 -16 -4 -29 -10 -29 -13 1 -4 24 -20 53 -37 l52 -30 3 -62 c2
-35 6 -63 11 -63 4 0 20 14 36 30 27 29 54 38 68 23 4 -3 -7 -14 -23 -25 -51
-31 -72 -74 -66 -138 4 -44 11 -60 32 -78 26 -23 29 -23 240 -20 257 4 249 0
249 115 0 75 0 75 -39 109 -22 19 -34 34 -27 34 20 0 102 83 131 133 23 41 29
45 40 32 24 -28 33 -17 26 34 -6 49 -6 49 35 80 44 32 43 35 -22 45 -27 5 -39
14 -52 39 -16 32 -16 32 -16 5 -1 -18 9 -35 30 -52 29 -24 29 -27 15 -48 -11
-15 -14 -33 -10 -56 l7 -34 -33 17 c-29 15 -35 15 -70 1 l-38 -15 10 40 c9 34
8 43 -8 60 -14 15 -15 20 -4 17 9 -2 14 4 14 15 -1 10 5 17 17 17 18 0 57 46
47 55 -3 3 -11 -6 -18 -20 -12 -22 -20 -25 -67 -25 l-54 0 34 -42 c34 -43 35
-43 21 -88 -8 -25 -14 -46 -14 -47 0 -1 7 0 15 3 8 4 15 2 15 -4 0 -18 -70
-116 -103 -145 -21 -19 -25 -26 -12 -21 57 20 144 117 132 148 -4 9 4 21 19
30 58 39 0 -71 -78 -146 -67 -64 -93 -74 -203 -72 -72 1 -153 22 -147 38 2 5
-2 13 -10 17 -9 6 -9 9 -1 9 6 0 15 -5 18 -10 4 -6 15 -10 24 -8 10 2 26 -4
36 -12 23 -19 159 -20 178 -1 10 10 -5 12 -72 10 l-85 -2 -24 57 -25 56 38 57
37 56 -65 -7 -65 -6 -31 39 c-33 41 -44 84 -16 61 22 -18 42 -6 50 29 10 48
31 39 26 -11 -1 -10 0 -18 3 -18 20 0 106 23 106 28 0 4 23 8 50 9 28 0 57 6
65 13 8 6 18 9 23 6 9 -5 240 39 249 48 2 2 -2 10 -10 17 -8 7 -12 21 -9 31 2
10 -3 20 -12 24 -18 7 -246 -35 -246 -45 0 -3 -15 -6 -32 -6 -18 0 -46 -4 -62
-8 -25 -7 -28 -6 -22 10 4 10 22 68 39 130 l32 112 127 41 c69 22 131 40 137
40 26 0 3 20 -110 95 l-120 80 3 143 c2 78 1 142 -2 141 -3 0 -54 -38 -115
-85z m143 -251 c129 -89 145 -102 131 -108 -8 -3 -59 -20 -114 -38 l-99 -34
-31 -104 c-18 -57 -34 -110 -36 -117 -2 -7 -36 31 -74 86 l-70 99 -124 -5
c-101 -3 -122 -1 -115 10 4 7 37 52 72 101 l64 87 -41 112 c-22 62 -38 114
-36 116 2 3 52 -12 110 -32 58 -20 110 -36 115 -36 5 0 51 32 102 71 l93 71 3
-123 3 -124 47 -32z m-318 -293 c16 -16 20 -17 20 -5 0 8 3 15 8 14 9 0 124
-165 123 -176 0 -4 -58 -20 -129 -34 l-128 -25 7 71 c4 39 12 89 18 110 13 49
8 56 -10 13 -7 -18 -17 -36 -23 -40 -12 -8 -9 -149 4 -162 13 -13 13 -29 0
-21 -12 7 -3 -63 12 -104 8 -23 -4 -52 -17 -39 -10 10 -38 163 -38 208 -1 119
4 171 13 165 5 -3 7 0 4 8 -13 35 104 49 136 17z m535 -130 c0 -8 4 -21 8 -27
5 -8 3 -13 -5 -13 -8 0 -20 6 -27 13 -11 10 -13 9 -8 -5 4 -11 -1 -18 -14 -21
-15 -4 -19 -2 -15 9 3 9 1 12 -4 9 -6 -4 -9 4 -7 17 3 34 72 51 72 18z m-85
-9 c0 -4 -11 -6 -25 -3 -15 2 -25 0 -25 -7 0 -6 8 -12 18 -12 16 -1 16 -2 0
-6 -23 -6 -23 -23 -1 -23 22 0 14 -6 -19 -14 -23 -5 -25 -3 -21 14 3 11 0 26
-6 34 -10 12 -8 15 11 19 41 8 68 7 68 -2z m-112 -38 c-3 -28 -8 -30 -40 -18
-13 5 -18 2 -18 -8 0 -9 -5 -19 -12 -23 -7 -5 -8 -3 -3 6 6 10 4 12 -8 7 -11
-4 -17 -1 -17 9 0 9 5 12 11 8 8 -4 9 0 4 15 -8 26 14 28 50 5 26 -17 34 -7
13 14 -9 9 -8 12 6 12 13 0 17 -7 14 -27z m-110 -23 c2 -32 -7 -37 -40 -19
-19 10 -20 9 -15 -10 4 -15 1 -21 -12 -21 -18 0 -41 18 -41 32 0 15 19 8 23
-9 4 -14 5 -12 6 5 0 12 -5 22 -11 22 -7 0 -5 5 5 11 14 8 25 6 44 -6 22 -15
25 -15 20 -2 -5 15 0 27 13 27 3 0 7 -13 8 -30z m-115 -10 c-3 -11 0 -27 7
-35 11 -13 10 -14 -2 -10 -9 3 -20 17 -26 30 -9 20 -8 25 6 28 9 3 18 5 19 6
0 0 -1 -8 -4 -19z m-63 -13 c0 -7 -6 -22 -14 -32 -11 -16 -17 -17 -29 -7 -13
11 -16 10 -22 -7 -3 -12 -9 -21 -13 -21 -9 1 -62 47 -62 55 0 12 34 4 46 -12
7 -10 16 -15 20 -11 4 4 1 14 -6 23 -11 13 -9 15 13 15 17 0 27 -7 32 -22 8
-22 8 -22 12 5 4 27 23 39 23 14z m-115 -57 c18 -20 18 -22 0 -58 -18 -37 -18
-37 -26 -12 -10 35 -11 90 -1 90 5 0 17 -9 27 -20z m55 -40 c0 -12 59 -80 68
-79 4 1 22 1 40 0 l34 -1 -21 -34 c-26 -41 -26 -52 -2 -99 10 -20 17 -37 14
-37 -2 0 -24 5 -49 11 -43 11 -47 10 -84 -20 -24 -19 -40 -27 -41 -19 -1 7 -2
22 -3 33 -1 11 -3 29 -4 40 -1 12 -16 29 -32 39 -17 10 -27 22 -24 28 5 7 1 9
-9 5 -10 -3 -17 -2 -17 2 0 5 20 17 45 28 25 10 46 25 46 33 1 8 3 20 3 27 1
6 4 15 8 18 4 4 4 13 1 21 -3 8 1 14 11 14 9 0 16 -4 16 -10z m120 -331 c45
-17 69 -20 130 -16 41 3 93 12 115 20 44 15 65 13 65 -8 0 -32 -239 -48 -352
-24 -63 13 -60 12 -52 33 8 21 28 20 94 -5z m-25 -48 c96 -9 318 -3 325 9 3 5
14 8 25 6 16 -2 21 -12 23 -45 2 -29 0 -41 -7 -36 -7 3 -11 -2 -11 -14 0 -59
-30 -67 -54 -13 -9 20 -14 27 -12 14 8 -41 -25 -50 -177 -52 -134 -1 -138 0
-146 22 l-8 23 -7 -23 c-4 -12 -14 -22 -22 -22 -17 0 -37 47 -28 62 4 7 2 8
-4 4 -9 -5 -12 7 -12 39 0 41 2 46 18 40 9 -4 53 -10 97 -14z"/>
<path d="M1170 1536 c0 -2 6 -16 14 -30 10 -21 15 -23 19 -11 4 8 14 15 24 15
12 0 9 5 -11 15 -27 15 -46 19 -46 11z"/>
<path d="M1286 1025 c-9 -25 -19 -151 -11 -143 7 7 34 119 35 146 0 17 -17 15
-24 -3z"/>
<path d="M2234 1645 c0 -35 1 -36 36 -33 32 3 35 6 35 33 0 27 -3 30 -35 33
-35 3 -36 2 -36 -33z"/>
<path d="M2325 1648 c2 -30 5 -33 35 -33 19 0 35 5 37 11 2 7 -7 10 -24 8 -23
-4 -25 -3 -8 5 20 8 20 8 0 14 -13 4 -10 5 8 3 18 -2 27 1 27 10 0 10 -13 14
-39 14 -38 0 -39 -1 -36 -32z"/>
<path d="M2417 1673 c-2 -5 -4 -20 -5 -35 -1 -23 2 -28 21 -28 29 0 51 15 43
29 -4 6 -16 11 -27 11 -10 0 -19 5 -19 10 0 13 6 13 31 0 15 -8 19 -7 19 5 0
16 -55 22 -63 8z"/>
<path d="M2490 1665 c0 -9 6 -12 15 -9 9 4 15 0 15 -10 0 -9 -5 -16 -11 -16
-5 0 -7 -4 -4 -10 3 -5 15 -10 26 -10 16 0 18 5 13 27 -6 22 -4 25 10 20 10
-4 16 -1 16 8 0 11 -11 15 -40 15 -29 0 -40 -4 -40 -15z"/>
<path d="M2611 1486 c-13 -16 -18 -72 -8 -83 4 -3 7 12 7 33 0 22 5 45 12 52
7 7 9 12 6 12 -3 0 -11 -6 -17 -14z"/>
<path d="M2266 1483 c-19 -19 32 -50 62 -38 13 5 12 8 -4 19 -27 18 -51 26
-58 19z"/>
<path d="M140 1471 c-14 -4 -30 -17 -36 -30 -11 -22 -12 -22 -22 -5 -6 11 -14
16 -17 12 -4 -4 0 -17 9 -30 10 -14 16 -43 16 -78 0 -82 36 -149 125 -236 76
-73 85 -88 62 -97 -8 -3 -6 -7 7 -12 11 -5 27 -3 37 3 31 20 43 14 62 -33 10
-24 35 -59 55 -77 21 -17 36 -36 34 -42 -2 -5 4 -4 12 4 21 17 20 27 -4 35
-22 7 -70 65 -74 89 -1 8 -10 23 -19 34 -12 13 -18 45 -23 118 -3 54 -13 114
-21 131 -21 46 -12 63 32 59 19 -1 35 1 35 6 0 4 -8 8 -19 8 -10 0 -30 9 -45
21 l-26 20 0 -30 c0 -35 -18 -41 -43 -13 -11 12 -17 36 -17 69 0 32 -5 55 -15
63 -18 15 -72 21 -105 11z m74 -44 c9 -14 7 -21 -6 -31 -23 -17 -23 -22 2 -29
14 -4 20 -14 20 -35 0 -33 16 -50 56 -61 26 -7 29 -12 44 -107 10 -54 16 -101
14 -103 -6 -7 -84 49 -123 90 -76 78 -115 216 -77 275 20 29 53 30 70 1z"/>
<path d="M811 1464 c-17 -12 -21 -25 -21 -68 0 -52 -19 -86 -47 -86 -6 0 -20
-17 -31 -38 -16 -31 -25 -78 -37 -194 -1 -10 2 -18 7 -18 14 0 9 -16 -14 -42
-13 -13 -36 -45 -52 -70 -16 -26 -44 -55 -63 -65 -34 -18 -46 -37 -17 -26 12
4 15 2 12 -8 -3 -8 -16 -14 -29 -14 -16 0 -31 -11 -45 -31 -22 -31 -22 -32 -3
-85 10 -30 19 -72 20 -94 1 -22 5 -53 9 -70 5 -24 8 -27 14 -13 5 10 1 53 -8
96 -21 105 -21 112 7 112 33 0 47 -18 37 -46 -5 -12 -10 -66 -12 -118 -3 -90
-8 -110 -23 -86 -11 17 -67 -50 -61 -73 4 -16 -9 -34 -56 -78 -70 -66 -69 -79
7 -98 97 -24 305 -3 305 32 -1 14 -59 77 -86 93 -11 7 -20 25 -22 45 -2 19
-13 44 -24 56 -19 20 -20 31 -15 115 3 51 13 115 22 141 16 45 16 49 0 67 -22
24 -12 54 29 91 18 15 41 47 51 71 25 55 35 62 60 38 23 -22 49 -13 39 13 -4
12 16 38 70 90 92 89 126 154 126 241 0 41 5 65 17 78 9 10 13 21 10 25 -4 4
-14 -2 -22 -13 -12 -16 -14 -16 -15 -3 0 26 -25 40 -73 44 -28 2 -52 -2 -66
-11z m90 -35 c18 -18 21 -30 17 -83 -5 -75 -36 -144 -91 -198 -48 -47 -115
-93 -123 -85 -3 3 -1 21 4 39 6 18 13 63 17 101 6 60 9 67 29 67 35 0 66 28
66 60 0 20 6 31 21 35 19 6 19 8 5 24 -21 23 -20 38 2 50 24 15 29 14 53 -10z
m-347 -633 c19 -29 11 -36 -38 -34 -46 2 -56 16 -26 40 30 24 45 23 64 -6z m8
-340 c18 -26 7 -36 -36 -36 -51 0 -57 5 -45 38 8 20 13 23 41 17 18 -4 36 -13
40 -19z m15 -83 c8 -9 11 -24 8 -31 -4 -11 1 -13 20 -10 35 7 54 -17 31 -40
-12 -13 -38 -18 -104 -20 -97 -4 -145 8 -140 36 3 15 15 17 93 16 92 -2 94 9
3 21 -33 4 -48 11 -48 21 0 36 112 42 137 7z"/>
<path d="M2346 1409 c-21 -30 -2 -69 34 -69 31 0 50 17 50 45 0 46 -57 62 -84
24z m59 -6 c3 -10 1 -19 -4 -21 -6 -2 -9 -8 -5 -13 3 -5 -6 -9 -20 -9 -21 0
-26 5 -26 23 0 13 3 27 7 30 13 13 41 7 48 -10z"/>
<path d="M2255 1220 c-7 -21 2 -60 13 -60 4 0 7 18 7 40 0 43 -10 53 -20 20z"/>
<path d="M2346 1014 c-20 -20 -20 -27 2 -54 14 -18 25 -21 45 -16 31 7 46 48
27 71 -19 23 -32 18 -19 -7 9 -17 9 -23 0 -26 -6 -2 -9 -8 -5 -13 3 -5 -6 -9
-20 -9 -21 0 -26 5 -26 25 0 13 8 29 18 34 9 6 12 11 5 11 -6 0 -19 -7 -27
-16z"/>
<path d="M2353 641 c2 -77 1 -81 -30 -113 -18 -19 -33 -40 -33 -47 0 -7 -20
-31 -45 -54 -25 -24 -45 -46 -45 -50 0 -4 -9 -16 -20 -27 -71 -71 59 -129 261
-117 112 7 166 23 187 55 14 21 13 25 -7 50 -11 15 -25 37 -31 49 -5 12 -18
24 -29 28 -11 3 -23 15 -26 26 -4 10 -11 19 -16 19 -5 0 -9 9 -9 20 0 10 -9
24 -20 30 -37 20 -53 67 -48 142 l5 68 -47 0 -48 0 1 -79z m51 63 c13 -5 14
-10 6 -20 -8 -8 -9 -40 -4 -94 4 -54 10 -77 16 -68 7 10 11 9 21 -6 7 -11 20
-28 30 -38 14 -15 15 -20 4 -24 -18 -6 -138 13 -149 24 -5 5 2 21 14 38 19 23
23 42 25 109 1 44 2 81 3 83 0 4 18 2 34 -4z m-54 -263 c30 -5 74 -6 96 -2 35
7 44 5 61 -14 l19 -22 -31 -12 c-54 -19 -160 -10 -203 17 -9 6 -8 42 2 42 0 0
26 -4 56 -9z m-64 -56 c35 -18 160 -20 217 -3 35 11 41 10 54 -8 8 -10 20 -18
26 -16 7 1 1 -7 -13 -19 l-25 -22 28 7 c44 10 33 -18 -17 -44 -45 -23 -302
-21 -338 2 -29 19 -36 64 -8 52 67 -29 104 -36 191 -35 52 0 106 4 120 9 16 6
-7 8 -68 4 -78 -4 -103 -1 -163 18 -38 12 -70 24 -70 27 0 11 22 43 29 43 5 0
22 -7 37 -15z"/>
</g>
</svg>
