<?xml version="1.0" standalone="no"?>
<!DOCTYPE svg PUBLIC "-//W3C//DTD SVG 20010904//EN"
 "http://www.w3.org/TR/2001/REC-SVG-20010904/DTD/svg10.dtd">
<svg version="1.0" xmlns="http://www.w3.org/2000/svg"
 width="300.000000pt" height="214.000000pt" viewBox="0 0 300.000000 214.000000"
 preserveAspectRatio="xMidYMid meet">
<metadata>
Created by potrace 1.10, written by Peter Selinger 2001-2011
</metadata>
<g transform="translate(0.000000,214.000000) scale(0.100000,-0.100000)"
fill="#000000" stroke="none">
<path d="M601 1790 l-1 -65 -146 -59 c-80 -33 -147 -64 -150 -68 -3 -4 50 -8
118 -8 117 0 124 -1 133 -22 6 -12 17 -26 26 -31 24 -15 68 0 81 28 11 25 13
25 136 25 69 0 122 3 119 7 -4 3 -73 34 -155 68 l-147 62 -6 64 -6 64 -2 -65z
m164 -139 l120 -50 -275 0 c-181 0 -268 4 -255 10 121 57 253 105 270 98 11
-4 74 -30 140 -58z m-115 -82 c-15 -27 -36 -34 -66 -21 -44 20 -30 42 26 42
48 0 50 -1 40 -21z"/>
<path d="M1013 1795 c-59 -58 -62 -69 -43 -212 8 -64 7 -77 -14 -130 -13 -32
-34 -95 -47 -140 -17 -65 -26 -83 -40 -83 -13 0 -19 9 -21 38 l-3 37 -265 0
-265 0 0 -40 c0 -40 0 -40 43 -43 l42 -3 0 -64 0 -64 -52 -3 -53 -3 0 -35 c0
-29 4 -36 25 -40 22 -4 25 -10 25 -45 0 -35 -3 -41 -25 -45 l-25 -5 -3 -143
-3 -142 253 0 253 -1 18 -25 c11 -14 17 -26 15 -27 -1 -1 -49 -24 -105 -51
-56 -28 -99 -54 -96 -59 3 -6 1 -7 -4 -4 -6 4 -25 2 -42 -4 -28 -10 -31 -15
-31 -54 l0 -42 78 18 c84 21 212 26 252 11 14 -6 31 -17 38 -25 11 -12 18 -13
50 -1 95 34 228 -7 350 -106 l33 -27 272 99 c150 55 275 103 278 106 4 4 4 26
0 49 l-6 41 -273 -99 -273 -100 -48 35 c-77 57 -155 88 -233 94 l-69 5 92 38
92 39 433 0 432 -1 4 -34 4 -35 -53 0 -53 0 0 -95 0 -95 325 0 325 0 0 90 0
90 55 0 55 0 0 134 c0 144 -1 146 -55 146 -19 0 -23 6 -27 40 l-3 39 40 3 40
3 0 43 c-1 23 -2 252 -3 510 l-2 467 -197 -2 c-109 -1 -197 -5 -195 -8 1 -3 2
-212 2 -465 l0 -460 193 -2 192 -3 3 -37 3 -38 -263 2 c-217 2 -239 3 -123 8
132 5 140 6 140 25 0 19 -8 20 -140 25 -77 3 -111 7 -76 8 56 2 62 4 55 20 -5
9 -11 222 -14 472 l-5 455 -198 0 -197 0 0 -227 0 -228 48 0 c60 0 118 -35
185 -111 51 -58 145 -229 126 -229 -8 0 -8 -4 -2 -12 6 -7 20 -39 32 -70 l21
-58 -60 0 -60 0 0 -40 0 -40 -70 0 -70 0 0 -55 0 -55 65 0 65 0 0 -39 0 -40
-52 -3 -53 -3 0 -43 0 -42 -372 0 c-244 0 -374 4 -378 10 -9 14 52 69 100 91
22 10 34 18 27 18 -35 2 -142 -78 -142 -106 0 -8 -13 -13 -35 -13 -40 0 -43
11 -16 56 24 39 73 77 135 105 26 11 45 23 43 26 -3 2 -30 -7 -60 -22 -66 -31
-136 -98 -144 -137 -3 -15 -12 -28 -19 -28 -19 0 -18 43 1 80 17 33 99 101
157 131 21 11 38 22 38 24 0 14 -109 -52 -150 -91 -46 -43 -62 -70 -74 -124
-4 -22 -23 -33 -121 -74 -114 -48 -116 -49 -136 -30 -17 15 -37 19 -98 19 -42
0 -98 -3 -126 -7 -48 -8 -46 -6 53 42 102 49 103 49 140 33 75 -31 184 3 243
77 45 56 65 53 37 -5 -18 -38 -20 -47 -9 -58 11 -10 13 -9 7 7 -9 27 40 111
94 158 25 22 70 53 100 69 30 15 49 28 42 29 -25 0 -96 -43 -146 -89 -50 -47
-86 -69 -86 -52 0 5 25 79 55 166 30 86 55 160 55 163 -1 18 -25 -39 -66 -159
-24 -72 -51 -148 -60 -168 -61 -146 -260 -185 -334 -65 -20 31 -22 45 -17 104
12 141 139 657 183 742 13 25 14 44 3 144 l-13 115 57 56 c57 58 83 66 53 16
-16 -26 -15 -25 11 4 15 17 37 33 48 36 11 2 0 4 -25 4 -41 1 -50 -4 -97 -52z
m1227 5 c15 -28 16 -611 1 -638 -6 -11 -13 -5 -31 24 -56 92 -105 148 -162
185 -34 21 -71 39 -83 39 -12 0 -31 8 -41 18 -18 15 -20 33 -22 186 -4 220
-16 206 180 205 133 0 149 -2 158 -19z m420 6 c18 -8 26 -106 9 -106 -6 0 -7
-4 -4 -10 3 -5 2 -10 -3 -10 -5 0 -15 14 -22 30 -13 32 -55 66 -80 66 -12 -1
-16 -20 -20 -88 -5 -83 -7 -89 -38 -117 -18 -17 -49 -33 -70 -36 -20 -3 -45
-8 -55 -10 -44 -9 -47 1 -47 132 0 68 4 133 10 143 9 17 23 18 157 16 82 -1
155 -6 163 -10z m-34 -123 c42 -98 -19 -209 -125 -229 -39 -8 -132 18 -151 41
-11 13 -4 15 51 15 113 0 174 59 165 160 -2 30 -7 66 -12 80 -7 25 -7 25 26
-5 18 -16 39 -44 46 -62z m52 -427 c0 -219 -4 -296 -13 -309 -11 -16 -31 -17
-171 -15 l-159 3 -3 262 c-1 144 1 264 6 267 5 3 26 -4 48 -14 45 -24 117 -26
165 -6 39 17 84 61 93 93 4 13 13 20 21 17 11 -4 13 -61 13 -298z m-1838 9 l0
-35 -255 0 -255 0 0 35 0 35 255 0 255 0 0 -35z m40 -54 c0 -40 -3 -41 -241
-41 l-229 0 0 25 0 25 235 0 c136 0 235 -4 235 -9z m-21 -83 c-5 -18 -9 -34
-9 -35 0 -2 -99 -3 -220 -3 l-220 0 0 35 0 35 229 0 230 0 -10 -32z m-13 -64
c-3 -9 -6 -22 -6 -30 0 -12 -44 -14 -270 -14 l-270 0 0 23 c0 13 3 27 7 30 3
4 128 7 276 7 241 0 269 -2 263 -16z m-193 -61 c-36 -4 -44 -8 -49 -29 -4 -14
-2 -30 5 -37 8 -8 11 -3 11 21 l0 32 105 0 105 0 -6 -27 c-4 -16 -7 -29 -8
-30 -1 -1 -102 -5 -225 -9 -239 -7 -240 -7 -241 42 0 40 16 44 185 42 88 -1
141 -3 118 -5z m155 -108 c2 -1 0 -14 -3 -27 l-6 -25 -172 -6 c-95 -4 -207 -7
-249 -7 l-78 0 0 33 c0 19 3 37 8 41 6 7 492 -2 500 -9z m1642 -30 c0 -13 -22
-15 -135 -15 -113 0 -135 2 -135 15 0 13 22 15 135 15 113 0 135 -2 135 -15z
m-1660 -62 c0 -10 -3 -28 -6 -40 l-6 -23 -242 2 -241 3 207 2 c178 3 207 6
212 19 15 39 -8 43 -218 47 l-201 2 248 3 c229 2 247 1 247 -15z m1820 -22 l0
-38 -92 -7 c-50 -3 -152 -5 -227 -4 l-136 2 120 6 120 5 0 30 0 30 -55 -3
c-30 -1 -62 2 -70 8 -10 7 39 10 163 10 l177 0 0 -39z m-1910 -1 c0 -19 -7
-20 -200 -20 -193 0 -200 1 -200 20 0 19 7 20 200 20 193 0 200 -1 200 -20z
m1690 -5 c0 -19 -8 -20 -175 -23 l-175 -2 0 26 0 26 175 -4 c167 -3 175 -4
175 -23z m-1608 -90 l3 -45 -239 0 c-132 0 -237 2 -235 5 3 2 95 6 205 8 l199
3 3 23 c2 13 -1 28 -7 34 -8 8 -11 3 -11 -18 l0 -30 -200 -3 -200 -3 0 30 0
31 203 3 c111 1 218 3 238 5 37 2 37 2 41 -43z m1916 -2 l-3 -38 -110 -3 c-87
-2 -107 0 -97 10 6 6 11 23 11 38 -1 23 -2 23 -8 -5 l-6 -30 -158 -3 -157 -3
0 30 0 31 163 3 c89 1 208 4 265 5 l103 2 -3 -37z m-95 -63 c97 0 97 0 97 -25
l0 -25 -170 0 -170 0 0 28 c0 19 -3 23 -9 13 -5 -7 -6 -22 -4 -32 5 -18 -2
-19 -136 -19 l-141 0 0 37 0 36 218 -6 c119 -4 261 -7 315 -7z m-95 -77 c-189
-3 -197 -4 -203 -24 -4 -12 -2 -26 4 -32 8 -8 11 -4 11 16 l0 27 190 0 190 0
0 -25 0 -25 -127 0 c-71 0 -212 -3 -315 -7 l-188 -6 0 41 0 42 318 -2 c230 -2
263 -3 120 -5z m-618 -67 l0 -33 -263 -97 c-145 -53 -267 -96 -270 -96 -4 0
-28 16 -54 37 -85 64 -168 97 -248 98 -38 0 -80 -3 -91 -8 -18 -6 -22 -3 -28
24 -3 18 -3 35 0 38 3 3 47 6 97 6 83 0 99 -3 160 -32 38 -18 87 -47 109 -65
l40 -31 67 22 c36 12 154 55 261 95 107 41 201 74 208 75 7 1 12 -12 12 -33z
m-1017 -7 c39 -10 41 -13 51 -62 l7 -28 -33 18 c-43 23 -179 22 -264 0 -78
-21 -74 -22 -74 12 0 28 3 30 73 45 133 28 182 31 240 15z m1717 -44 l0 -35
-125 0 c-71 0 -125 -4 -125 -9 0 -6 -32 -8 -72 -7 -40 2 -127 5 -193 7 -109 3
-103 4 75 9 l195 5 3 27 3 28 -198 3 c-145 2 -113 3 120 5 l317 2 0 -35z
m-252 -2 c-3 -16 -21 -18 -191 -21 -182 -2 -187 -2 -187 18 0 19 6 20 191 20
176 0 190 -1 187 -17z m252 -93 l0 -40 -123 0 -123 0 4 40 4 40 119 0 119 0 0
-40z m-252 3 l-3 -28 -187 -3 -188 -2 0 30 0 30 191 0 190 0 -3 -27z"/>
<path d="M620 1040 c0 -5 16 -10 35 -10 19 0 35 5 35 10 0 6 -16 10 -35 10
-19 0 -35 -4 -35 -10z"/>
<path d="M608 703 c18 -2 45 -2 60 0 15 2 0 4 -33 4 -33 0 -45 -2 -27 -4z"/>
<path d="M2358 663 c17 -2 47 -2 65 0 17 2 3 4 -33 4 -36 0 -50 -2 -32 -4z"/>
<path d="M2193 313 c20 -2 54 -2 75 0 20 2 3 4 -38 4 -41 0 -58 -2 -37 -4z"/>
<path d="M1455 1842 c-1 -2 -1 -11 2 -22 4 -14 10 -17 31 -11 40 11 303 11
324 0 16 -9 18 -26 18 -187 0 -97 -4 -182 -8 -189 -4 -7 -48 -13 -110 -16
l-103 -5 -45 39 c-25 21 -50 39 -55 39 -6 0 1 14 15 31 86 102 -66 328 -208
307 -17 -3 -59 -2 -93 1 -35 4 -63 4 -63 0 0 -4 -13 -12 -29 -19 -16 -6 -37
-20 -47 -31 -9 -10 -20 -16 -25 -14 -10 7 -23 -14 -26 -40 -1 -11 -6 -37 -11
-57 -18 -69 9 -133 69 -164 15 -7 40 -38 57 -67 38 -68 82 -105 133 -113 33
-6 43 -13 59 -43 66 -128 192 -190 255 -126 21 20 25 34 25 79 0 31 -9 78 -19
106 l-19 50 134 0 134 0 0 228 0 227 -196 0 c-108 0 -197 -1 -199 -3z m-48
-76 c42 -22 71 -53 88 -93 19 -45 20 -44 -12 -27 -39 20 -48 18 -86 -16 -44
-38 -66 -38 -133 1 -64 36 -98 34 -156 -12 -20 -16 -40 -29 -44 -29 -3 0 -4
24 -2 54 5 60 33 104 83 129 39 20 219 16 262 -7z m-148 -176 c76 -52 161 -49
161 5 0 20 5 25 24 25 54 0 75 -84 32 -123 -14 -13 -28 -35 -32 -51 -10 -41
-64 -93 -111 -105 -63 -17 -113 6 -157 73 -78 117 -83 165 -23 191 45 20 56
18 106 -15z m275 -148 c40 -49 76 -151 76 -218 0 -104 -109 -116 -196 -22 -33
35 -84 108 -84 120 0 21 40 10 73 -21 20 -19 37 -30 37 -25 0 6 -13 23 -30 39
l-29 28 29 30 c16 16 34 43 41 61 15 38 29 58 39 54 4 -2 24 -22 44 -46z"/>
<path d="M1160 1013 c0 -5 -9 -60 -20 -123 -21 -112 -21 -170 -1 -68 22 112
33 189 27 195 -3 4 -6 2 -6 -4z"/>
<path d="M1878 955 c14 -36 27 -63 30 -61 6 6 -41 126 -50 126 -3 0 5 -29 20
-65z"/>
<path d="M1973 853 c31 -2 83 -2 115 0 31 2 5 3 -58 3 -63 0 -89 -1 -57 -3z"/>
</g>
</svg>
