<?xml version="1.0" standalone="no"?>
<!DOCTYPE svg PUBLIC "-//W3C//DTD SVG 20010904//EN"
 "http://www.w3.org/TR/2001/REC-SVG-20010904/DTD/svg10.dtd">
<svg version="1.0" xmlns="http://www.w3.org/2000/svg"
 width="300.000000pt" height="364.000000pt" viewBox="0 0 300.000000 364.000000"
 preserveAspectRatio="xMidYMid meet">
<metadata>
Created by potrace 1.10, written by Peter Selinger 2001-2011
</metadata>
<g transform="translate(0.000000,364.000000) scale(0.100000,-0.100000)"
fill="#000000" stroke="none">
<path d="M367 3629 c-64 -15 -109 -44 -199 -128 -92 -87 -94 -90 -144 -254
-28 -95 -28 -146 3 -202 9 -17 24 -47 35 -68 11 -21 39 -65 63 -98 24 -33 85
-131 135 -219 50 -88 111 -186 134 -218 44 -59 44 -59 171 -106 193 -71 280
-89 397 -83 96 5 96 5 124 -24 21 -21 25 -32 17 -40 -14 -14 1 -53 35 -91 19
-21 23 -34 19 -56 -9 -45 9 -94 48 -132 19 -19 35 -42 35 -53 0 -21 79 -215
90 -222 12 -7 -14 -72 -38 -98 -25 -27 -28 -59 -8 -76 12 -10 9 -20 -20 -62
-63 -94 -82 -226 -48 -339 9 -30 18 -75 19 -100 7 -85 23 -195 34 -223 6 -16
11 -60 11 -100 l0 -71 -28 45 c-16 25 -69 77 -118 116 -93 75 -163 144 -205
203 -22 30 -24 41 -17 80 4 25 13 83 18 130 15 125 20 122 -229 115 -294 -9
-409 -29 -450 -79 -12 -14 -11 -21 5 -52 26 -49 47 -61 132 -73 130 -17 273
-104 328 -197 10 -16 15 -17 32 -7 17 10 23 7 49 -25 72 -90 293 -404 293
-416 0 -4 -56 -6 -124 -6 l-124 0 -11 33 c-6 18 -31 53 -55 79 -25 25 -49 61
-54 80 -7 28 -13 33 -42 36 -81 8 -172 -59 -211 -156 -13 -32 -38 -81 -55
-111 -44 -73 -58 -136 -52 -236 6 -81 19 -125 39 -125 6 0 6 7 -1 19 -5 11
-14 50 -20 88 -12 91 5 173 53 251 20 33 37 65 37 71 0 27 52 111 86 139 46
38 117 60 139 42 25 -20 17 -35 -18 -36 -58 -1 -115 -49 -161 -136 -23 -42
-54 -98 -71 -124 -52 -85 -65 -214 -28 -286 7 -16 21 -28 30 -28 15 0 15 1 0
18 -17 19 -36 90 -37 136 l0 29 22 -21 c28 -26 70 -42 109 -42 16 0 29 -3 29
-7 0 -14 -52 -93 -68 -103 -15 -9 -14 -10 8 -8 19 2 33 19 63 73 44 80 77 118
118 136 24 10 33 9 47 -3 29 -26 61 -31 88 -14 22 15 31 15 122 -3 53 -11 144
-25 202 -32 96 -12 108 -16 143 -46 44 -39 89 -43 156 -13 36 17 50 18 80 10
81 -22 159 -6 221 47 29 25 45 32 63 28 33 -9 54 15 72 83 9 31 22 80 30 108
25 86 19 201 -17 333 l-32 115 12 126 c34 359 40 402 67 430 17 18 25 37 25
63 0 20 10 57 22 82 22 44 22 48 6 91 -14 41 -15 54 -2 126 8 44 11 91 8 104
-8 31 -2 30 47 -5 57 -42 115 -51 331 -51 168 0 194 -2 211 -17 15 -14 45 -19
136 -24 64 -4 135 -10 158 -14 35 -6 44 -5 49 9 8 22 4 26 -58 47 l-52 17 60
7 c70 9 94 20 94 43 0 10 5 23 11 29 7 7 9 19 5 29 -6 14 -16 16 -74 10 l-67
-6 53 25 c39 18 53 30 50 42 -5 28 -50 27 -120 -2 -103 -43 -107 -44 -76 -7
33 39 43 71 29 85 -9 9 -16 8 -29 -1 -9 -7 -30 -20 -47 -30 -16 -9 -46 -34
-67 -54 -26 -25 -48 -38 -66 -38 -73 0 -202 24 -275 51 -47 17 -105 30 -134
31 -51 1 -54 3 -126 77 -56 57 -76 85 -81 112 -8 47 -55 117 -135 201 -47 51
-81 76 -132 100 -38 17 -69 35 -69 38 0 12 51 54 97 80 26 14 55 37 66 52 18
24 19 32 9 65 -10 33 -9 39 8 56 16 14 18 22 10 37 -6 10 -14 21 -19 25 -6 3
-7 21 -4 40 5 31 3 35 -15 35 -19 0 -20 3 -12 26 14 35 7 42 -46 50 -39 6 -47
11 -64 44 -11 21 -32 48 -47 61 -21 18 -27 31 -25 54 4 37 -33 124 -56 132 -9
4 -36 24 -60 45 -39 36 -47 39 -100 38 -31 0 -75 0 -97 1 -66 1 -153 -16 -173
-34 -10 -9 -27 -17 -38 -17 -32 0 -80 -36 -98 -74 -9 -20 -28 -43 -42 -52 -13
-9 -24 -25 -24 -35 0 -11 -9 -27 -20 -36 -11 -10 -20 -25 -20 -34 0 -9 -9 -28
-20 -42 -36 -45 -42 -77 -26 -131 13 -43 13 -53 0 -77 -8 -16 -14 -56 -14 -92
0 -55 4 -70 30 -106 17 -22 53 -53 80 -69 27 -15 50 -30 50 -34 0 -4 -16 -10
-36 -14 -28 -5 -50 0 -107 27 -66 31 -80 34 -170 34 -112 0 -99 -7 -185 112
-23 33 -94 110 -156 170 -117 115 -146 158 -146 215 l0 33 18 -30 c26 -42 88
-94 141 -119 69 -32 197 -29 271 5 77 36 124 80 157 147 25 50 28 68 28 152 0
82 -4 103 -26 151 -32 68 -90 134 -138 158 -71 36 -168 48 -244 30z m133 -43
c0 -19 11 -49 25 -71 22 -31 24 -40 13 -53 -11 -13 -10 -15 5 -9 23 9 178 -90
203 -129 22 -33 12 -118 -21 -184 -30 -58 -43 -69 -49 -38 -2 13 -10 50 -16
83 -35 180 -174 342 -335 390 l-40 13 50 15 c28 9 76 16 108 16 l57 1 0 -34z
m67 12 c15 -7 48 -25 71 -41 l44 -29 -58 -24 -58 -23 -15 22 c-17 23 -39 75
-40 95 -1 15 20 15 56 0z m-216 -47 c27 -11 75 -38 105 -61 l55 -41 -24 -19
c-24 -19 -26 -19 -58 -2 -23 11 -57 17 -105 17 -71 0 -72 0 -62 24 7 19 4 28
-12 43 -20 19 -20 21 -4 39 22 24 41 24 105 0z m-131 -45 c0 -14 -75 -76 -91
-76 -10 0 73 89 84 90 4 0 7 -6 7 -14z m496 -48 c15 -29 30 -65 34 -79 8 -26
3 -24 -81 30 -49 31 -89 58 -89 61 0 7 79 38 97 39 7 1 25 -23 39 -51z m-480
-1 c-8 -20 -31 -47 -54 -62 -42 -28 -100 -105 -78 -105 7 0 38 18 70 40 64 45
66 46 66 26 0 -18 -84 -92 -135 -119 -27 -14 -35 -22 -24 -24 16 -4 24 -27 36
-105 3 -21 9 -36 13 -33 5 3 14 -12 21 -32 8 -27 47 -72 128 -153 68 -67 143
-153 179 -206 70 -103 92 -118 149 -102 56 15 123 3 214 -37 79 -36 81 -36
115 -20 64 30 147 55 183 55 56 0 96 -15 202 -76 102 -58 121 -78 155 -162
l17 -44 -54 -54 c-66 -68 -136 -120 -171 -129 -49 -12 -94 11 -119 61 -12 25
-27 48 -35 51 -7 2 -11 10 -8 17 9 24 -49 36 -166 34 -126 -1 -140 2 -340 70
-112 37 -141 52 -170 82 -19 20 -82 119 -140 220 -58 101 -124 209 -147 241
-23 32 -52 76 -65 100 -13 23 -30 53 -38 68 -26 45 -19 135 19 238 31 87 36
94 75 113 23 11 57 36 76 55 18 19 35 33 37 31 2 -2 -2 -20 -11 -39z m177 -39
c33 -13 34 -21 2 -42 -41 -27 -134 -146 -170 -219 l-34 -67 -25 43 c-14 24
-28 57 -32 73 -5 26 0 34 35 62 93 74 84 156 -9 87 -39 -29 -44 -30 -33 -11
16 28 102 85 135 89 41 5 95 0 131 -15z m154 -50 c49 -73 79 -152 91 -244 8
-62 8 -66 -14 -81 -35 -23 -137 -62 -146 -57 -12 8 -9 61 7 134 22 102 19 178
-10 235 -22 45 -23 49 -7 61 28 22 35 17 79 -48z m-81 -24 c19 -44 18 -144 -2
-239 -9 -42 -14 -89 -11 -102 5 -25 4 -26 -50 -20 -60 6 -149 45 -178 77 -18
20 -18 22 6 73 46 99 187 266 212 250 5 -3 15 -20 23 -39z m890 15 c33 2 115
-53 161 -108 26 -30 31 -81 8 -81 -11 0 -13 7 -9 29 4 16 1 32 -5 35 -7 5 -11
-2 -11 -18 0 -14 -8 -30 -17 -35 -10 -6 -14 -11 -10 -11 4 0 3 -9 -3 -20 -8
-14 -8 -26 0 -40 9 -16 6 -24 -14 -41 -14 -12 -25 -32 -25 -43 0 -44 -14 -92
-33 -113 -16 -17 -18 -25 -9 -41 15 -29 14 -37 -5 -22 -20 17 -62 22 -86 9
-21 -11 -25 -68 -7 -101 9 -17 6 -25 -20 -49 -17 -15 -39 -33 -49 -38 -15 -9
-15 -10 3 -11 11 0 28 8 36 18 25 27 58 52 70 52 15 0 1 -60 -19 -79 -8 -8
-21 -16 -30 -17 -8 -2 -26 -14 -41 -28 -24 -23 -31 -25 -61 -16 -50 14 -108
12 -168 -5 l-51 -15 -65 52 c-78 61 -91 92 -82 182 8 72 9 94 5 161 -2 44 3
60 40 124 76 131 135 197 206 231 34 16 76 30 91 31 16 0 38 4 49 9 11 5 43 7
70 4 28 -4 64 -6 81 -5z m-1241 -169 c10 -19 13 -40 9 -53 -6 -20 -8 -19 -20
13 -13 36 -18 70 -9 70 2 0 12 -14 20 -30z m1447 -62 c16 -11 40 -40 55 -66
32 -56 36 -59 85 -67 35 -6 37 -8 31 -36 -5 -25 -2 -31 16 -36 11 -3 21 -8 21
-11 0 -9 -69 -72 -80 -72 -5 0 -10 -4 -10 -10 0 -14 22 -12 63 5 44 18 59 3
28 -26 -24 -23 -25 -29 -10 -63 16 -35 -7 -69 -69 -100 -57 -29 -98 -71 -108
-110 -5 -21 -4 -27 5 -22 16 10 56 -16 108 -70 36 -37 39 -44 22 -44 -23 0
-91 33 -134 65 -68 51 -117 68 -192 68 -67 -1 -72 1 -63 17 6 10 10 43 10 73
0 76 16 102 60 101 27 0 44 -10 73 -39 34 -34 41 -37 75 -31 20 3 53 6 72 6
26 0 31 3 20 10 -8 5 -38 7 -66 4 -49 -6 -53 -5 -93 32 -39 34 -47 38 -92 35
-70 -4 -101 18 -97 67 3 32 7 37 31 40 19 2 42 -6 68 -24 22 -15 42 -24 45
-21 3 3 -5 23 -18 46 l-23 40 23 22 c17 15 22 28 18 45 -3 12 -2 26 4 29 5 3
10 17 10 31 0 13 9 33 19 43 20 20 20 19 23 -17 4 -47 21 -44 26 5 2 20 11 43
20 49 12 9 14 16 6 24 -12 12 -44 3 -44 -12 0 -5 4 -7 9 -4 5 4 6 -4 3 -16 -5
-19 -7 -20 -10 -5 -2 9 -7 17 -12 17 -13 0 -18 38 -7 49 13 13 42 5 79 -21z
m-246 -550 c-9 -57 -12 -60 -49 -35 l-32 21 20 22 c19 20 39 31 59 33 5 1 6
-18 2 -41z m159 -76 c28 -10 80 -39 117 -64 76 -52 126 -67 172 -49 29 11 33
9 58 -21 83 -98 102 -137 106 -209 2 -38 2 -69 0 -69 -3 0 -19 7 -37 16 -41
20 -53 11 -14 -11 l28 -16 -50 5 c-168 19 -182 19 -234 1 -31 -10 -63 -14 -79
-10 -26 6 -26 6 -10 -11 16 -17 22 -17 65 -4 54 16 152 18 259 6 l71 -9 22
-105 c21 -98 22 -113 10 -207 -9 -76 -9 -109 -1 -134 9 -27 8 -40 -8 -82 -11
-27 -20 -65 -20 -83 0 -22 -8 -40 -25 -56 -23 -22 -27 -23 -41 -8 -15 15 -15
17 4 27 11 6 27 29 36 51 23 58 19 72 -7 22 -21 -40 -72 -82 -100 -82 -6 0
-25 16 -40 35 -30 38 -50 42 -101 21 -33 -14 -34 -13 -72 25 -42 43 -71 54
-33 12 19 -21 20 -25 6 -20 -10 4 -52 7 -94 7 -55 0 -74 3 -71 13 3 7 26 13
57 15 62 4 59 22 -5 22 -42 0 -57 11 -33 26 6 3 8 17 5 30 -6 21 -3 24 25 24
37 0 82 20 129 60 54 44 31 44 -34 0 -32 -22 -70 -40 -85 -40 -23 0 -29 8 -49
58 -12 32 -22 69 -22 83 0 23 6 26 60 37 32 7 62 18 66 24 5 8 0 9 -17 4 -13
-3 -42 -9 -64 -12 -37 -4 -42 -2 -67 32 -28 37 -37 87 -18 99 5 3 15 16 21 28
11 21 10 21 -15 -2 -16 -15 -30 -21 -35 -15 -4 5 -25 28 -45 51 l-37 42 38 10
c55 15 113 48 157 89 l39 37 -19 -33 c-10 -19 -40 -48 -66 -64 -54 -35 -58
-52 -4 -19 54 34 102 93 126 157 28 74 23 128 -16 182 -30 42 -97 92 -123 92
-8 0 6 -13 31 -29 51 -32 95 -85 107 -128 20 -72 -56 -183 -163 -236 -59 -30
-112 -45 -103 -30 4 6 19 14 33 17 58 15 192 133 213 187 17 47 -48 159 -114
195 -65 35 20 47 110 16z m279 -57 c15 -14 26 -28 23 -31 -9 -9 -40 12 -77 51
l-35 37 30 -16 c17 -8 43 -27 59 -41z m-563 -345 c19 0 35 -17 25 -27 -10 -10
-63 18 -92 49 l-29 30 39 -26 c21 -14 47 -26 57 -26z m861 -56 c28 -24 49 -33
94 -39 33 -3 79 -15 103 -26 70 -30 158 -50 252 -56 l86 -6 45 42 c25 22 50
41 55 41 6 0 22 11 37 25 50 46 51 21 1 -34 -19 -21 -35 -49 -35 -61 0 -13 -7
-32 -17 -42 -9 -10 -13 -21 -9 -26 10 -9 46 35 46 57 0 10 9 17 21 18 11 1 51
14 88 28 92 36 127 28 46 -9 -33 -16 -65 -29 -71 -29 -6 0 -14 -23 -17 -51 -3
-28 -10 -64 -16 -80 -11 -29 -12 -29 -84 -23 -39 2 -87 12 -105 22 -27 14 -67
17 -245 18 l-212 2 -62 38 c-35 21 -65 43 -69 49 -14 22 -39 165 -36 203 l4
40 32 -35 c18 -19 48 -49 68 -66z m-833 2 c2 -5 23 -31 47 -56 l42 -45 -24
-29 c-14 -15 -23 -31 -20 -34 3 -2 14 6 25 19 16 18 20 20 21 8 0 -9 11 -32
24 -52 17 -24 21 -37 13 -41 -7 -2 -4 -5 5 -5 13 -1 16 -8 12 -33 -4 -21 2
-50 15 -81 27 -62 26 -67 -6 -68 l-28 -1 25 -7 c19 -4 25 -12 24 -31 -1 -45
-4 -50 -24 -50 -11 0 -20 -4 -20 -10 0 -5 9 -10 19 -10 17 0 18 -3 8 -25 -10
-21 -19 -25 -54 -25 -40 0 -43 2 -43 28 0 15 9 35 20 45 11 9 20 25 20 35 0
10 5 23 11 29 8 8 -1 38 -36 110 -26 54 -47 109 -47 123 0 34 -20 70 -57 103
-23 20 -31 36 -31 61 0 19 -3 41 -6 50 -5 13 -1 15 27 9 19 -3 36 -11 38 -17z
m1741 -146 c0 -10 -9 -13 -102 -27 -50 -8 -57 -7 -61 8 -6 21 11 26 101 28 35
0 62 -3 62 -9z m-29 -50 c-8 -4 -35 -11 -60 -15 -25 -3 -54 -8 -63 -11 -11 -3
-18 0 -18 9 0 9 22 16 73 23 76 10 90 8 68 -6z m-35 -98 c-3 -2 -32 1 -65 8
-41 8 -58 16 -55 25 4 10 18 9 65 -7 33 -11 58 -23 55 -26z m-1441 -314 c-4
-13 -9 -31 -11 -40 -7 -26 -31 -22 -50 7 -9 14 -20 25 -24 25 -16 0 3 -42 27
-57 l24 -16 -20 -21 c-56 -60 -67 -176 -26 -295 l24 -72 -35 22 c-49 30 -53
18 -4 -15 36 -23 39 -28 28 -46 -9 -13 -19 -18 -33 -14 -17 4 -16 2 5 -15 14
-11 28 -21 32 -21 4 0 7 -19 7 -42 -1 -68 17 -178 38 -238 11 -30 23 -70 26
-87 l7 -33 -69 0 -68 0 -6 49 c-3 27 -20 93 -36 148 -31 97 -51 205 -56 293
-1 25 -10 74 -20 110 -12 46 -16 85 -12 135 6 76 16 106 62 177 26 42 35 48
80 56 27 5 65 10 83 11 30 1 33 -1 27 -21z m46 -34 c10 -9 19 -12 19 -6 0 6
-4 14 -10 17 -5 3 -10 15 -10 26 0 18 4 20 48 13 26 -4 49 -11 50 -15 5 -13
40 -11 79 3 33 12 35 11 73 -30 26 -28 44 -40 55 -36 9 4 31 -1 49 -11 32 -17
32 -18 23 -69 -19 -110 -13 -102 -56 -63 -21 19 -72 54 -112 77 -41 23 -91 53
-111 66 -22 14 -40 20 -43 14 -3 -6 -16 -10 -28 -11 -12 0 2 -7 32 -15 30 -8
64 -20 77 -27 74 -39 163 -100 193 -131 l34 -35 -13 -108 c-7 -59 -15 -121
-19 -138 -7 -29 -8 -29 -20 20 -8 28 -15 45 -18 38 -2 -6 19 -100 46 -207 56
-217 62 -285 35 -403 -25 -111 -34 -143 -42 -143 -4 1 -20 21 -36 46 -31 50
-78 84 -114 84 -93 0 -202 75 -202 139 0 18 -12 70 -26 116 -14 45 -24 97 -22
115 l3 33 64 -81 c58 -74 101 -115 141 -136 8 -4 -3 9 -25 31 -22 21 -62 65
-90 98 -27 33 -64 77 -83 97 -28 30 -33 41 -28 64 l7 27 30 -29 c23 -22 125
-144 186 -223 2 -2 5 -2 8 1 10 10 -111 162 -178 225 -62 57 -83 93 -55 93 6
0 42 -27 80 -61 37 -33 68 -56 68 -50 0 5 -33 40 -74 77 -72 65 -75 70 -95
144 -36 132 -25 227 34 304 14 19 17 19 50 3 19 -9 35 -13 35 -8 0 5 -14 14
-31 21 -22 9 -28 17 -23 29 4 9 9 30 13 46 4 24 6 26 9 9 2 -12 12 -30 23 -40z
m-666 -174 c-11 -5 -74 -9 -140 -9 -66 -1 -183 -10 -260 -21 -171 -25 -198
-24 -120 2 45 16 100 22 225 28 243 10 318 10 295 0z m63 -27 c5 -32 -42 -42
-208 -41 -80 0 -165 -4 -190 -11 -67 -16 -260 -15 -260 2 0 10 18 14 63 15 35
1 85 7 113 12 27 6 130 14 230 19 100 4 189 13 200 19 27 16 48 10 52 -15z
m-13 -95 c-4 -29 -9 -71 -10 -92 -2 -25 -10 -45 -21 -53 -11 -8 -20 -10 -21
-6 -1 4 -11 40 -21 78 -11 39 -23 78 -27 88 -6 14 -2 17 21 18 16 0 38 4 49 9
35 15 38 11 30 -42z m-145 33 c18 -5 28 -18 37 -46 33 -110 42 -149 37 -157
-3 -4 -19 -15 -37 -24 -26 -14 -32 -14 -35 -3 -3 8 -25 34 -51 59 -50 49 -133
94 -193 105 -43 8 -46 15 -17 41 30 27 193 43 259 25z m-296 -42 c-28 -30 -32
-31 -92 -26 -58 4 -92 18 -92 38 0 4 39 10 88 12 48 1 96 4 106 5 17 2 15 -3
-10 -29z m40 -41 c-5 -8 -1 -9 12 -4 11 4 33 0 56 -11 46 -22 51 -37 11 -32
-5 1 -7 5 -5 11 1 5 -7 7 -19 3 -18 -6 -21 -4 -16 9 5 13 3 15 -11 8 -11 -6
-29 -3 -51 8 l-34 17 32 1 c20 0 29 -3 25 -10z m205 -113 c41 -44 50 -68 31
-80 -5 -3 -10 -2 -10 4 0 6 -14 26 -31 45 -18 21 -27 40 -23 47 5 9 2 10 -10
6 -23 -9 -43 3 -25 14 21 13 24 12 68 -36z m261 -97 c23 -26 79 -78 126 -115
l85 -67 -51 -24 c-31 -15 -63 -40 -80 -63 l-28 -39 -82 120 c-45 65 -99 139
-121 164 -21 24 -39 48 -39 54 0 5 12 15 28 21 15 6 41 22 57 35 l30 24 16
-31 c10 -18 36 -53 59 -79z m254 -229 c39 -46 100 -160 90 -168 -5 -4 -45 -13
-89 -20 -44 -7 -88 -14 -97 -17 -12 -4 -27 11 -53 52 l-37 57 29 40 c24 34 99
87 124 87 4 0 19 -14 33 -31z m92 -30 c7 -30 14 -66 14 -81 0 -36 12 -42 87
-43 39 0 68 -6 75 -14 11 -12 10 -13 -5 -7 -10 3 -47 6 -83 6 l-64 0 -20 40
c-19 37 -41 173 -26 159 4 -4 14 -31 22 -60z m-565 -82 c43 -49 75 -97 67
-100 -2 -1 -13 -8 -25 -14 -18 -10 -24 -10 -30 1 -4 7 -18 18 -30 25 -15 8
-20 17 -16 29 6 15 5 15 -11 3 -15 -13 -21 -11 -49 16 -18 17 -41 35 -51 41
-18 9 -17 11 15 31 54 33 78 28 130 -32z m-132 -21 c9 -11 7 -15 -9 -19 -27
-7 -64 -91 -85 -192 -9 -44 -18 -90 -21 -102 -6 -29 -26 -29 -60 0 l-27 24 16
48 c9 26 27 62 41 79 13 17 40 64 60 104 37 73 60 89 85 58z m42 -42 c14 -13
16 -21 8 -35 -6 -11 -6 -19 0 -19 5 0 12 7 15 15 5 14 9 14 36 0 37 -19 46
-37 52 -105 4 -41 3 -50 -5 -33 -13 28 -31 35 -64 22 -31 -12 -42 0 -43 46 -1
26 -2 27 -11 12 -6 -10 -8 -30 -4 -45 5 -24 0 -33 -35 -61 -23 -18 -49 -48
-57 -67 -18 -36 -33 -45 -33 -19 0 30 32 170 51 225 26 76 55 96 90 64z m844
-29 c37 -16 75 -51 75 -70 0 -9 9 -15 23 -15 17 0 19 2 7 10 -27 17 -6 18 65
4 55 -11 76 -21 98 -45 l28 -30 -23 -41 c-28 -51 -86 -94 -136 -102 -21 -4
-88 3 -152 14 -63 11 -134 20 -156 20 -29 0 -44 5 -48 16 -13 34 -7 37 55 31
37 -4 58 -3 54 3 -3 5 -33 12 -67 16 l-61 7 6 63 c3 34 13 78 21 98 13 31 19
35 58 39 55 5 115 -2 153 -18z m-237 -52 c-11 -32 -18 -74 -16 -94 3 -37 3
-37 -27 -32 -23 4 -27 2 -15 -6 8 -6 22 -11 31 -11 14 0 28 -26 29 -51 0 -8
-171 16 -332 47 -120 23 -138 29 -144 48 -10 30 -8 106 3 117 5 5 33 5 67 -2
62 -11 198 -1 326 25 105 22 100 25 78 -41z m-506 -112 c9 -17 26 -31 40 -33
18 -2 20 -5 7 -10 -9 -4 -34 2 -55 12 -22 10 -47 20 -56 24 -35 11 -16 31 32
35 8 0 22 -12 32 -28z m-86 -2 c3 -6 0 -15 -7 -20 -20 -12 -62 -11 -54 1 4 6
15 8 26 5 14 -5 17 -3 13 9 -7 18 11 22 22 5z m1154 -41 c0 -9 -3 -10 -23 -2
-9 3 -13 13 -9 26 5 20 6 20 19 3 7 -11 13 -22 13 -27z m-1233 -49 c-12 -20
-37 -26 -37 -9 0 6 5 10 10 10 6 0 9 3 9 8 -3 16 2 21 16 16 11 -5 12 -10 2
-25z m806 -25 c56 -8 53 -20 -7 -29 -31 -5 -52 -2 -75 9 -17 9 -31 19 -31 21
0 7 59 6 113 -1z"/>
<path d="M1100 2290 c0 -5 16 -10 36 -10 43 0 72 -14 101 -49 16 -19 22 -22
23 -10 0 23 -40 56 -85 68 -50 14 -75 14 -75 1z"/>
<path d="M1465 3240 c0 -41 8 -52 19 -25 5 13 -8 65 -17 65 -2 0 -3 -18 -2
-40z"/>
<path d="M1387 3199 c6 -56 4 -138 -3 -164 -5 -15 -3 -17 6 -8 15 14 18 171 3
197 -8 15 -10 10 -6 -25z"/>
<path d="M1461 3175 c0 -12 -5 -25 -10 -30 -13 -15 -24 -68 -11 -60 5 3 10 14
10 24 0 9 5 22 11 28 6 6 9 21 6 34 -4 20 -4 21 -6 4z"/>
<path d="M1230 2725 c-21 -14 -44 -21 -57 -18 -11 2 -32 -3 -46 -12 -20 -13
-30 -14 -47 -5 -12 6 -26 9 -33 7 -7 -2 -22 0 -34 4 -13 5 -23 5 -23 -1 0 -11
20 -17 86 -25 39 -5 53 -3 64 10 8 9 20 13 32 9 21 -6 78 17 98 41 18 22 0 18
-40 -10z"/>
<path d="M1577 3063 c-15 -14 -6 -70 13 -88 39 -35 68 25 34 73 -15 22 -35 28
-47 15z m17 -18 c-4 -8 1 -26 10 -40 14 -21 14 -25 2 -25 -7 0 -17 7 -20 16
-9 24 -7 64 4 64 5 0 7 -7 4 -15z"/>
<path d="M1323 2814 c-7 -19 7 -46 28 -53 9 -3 8 1 -4 13 -23 24 -22 46 3 46
17 0 19 -4 12 -16 -7 -12 -4 -23 7 -35 20 -24 51 -25 50 -1 0 9 -3 12 -5 5 -8
-19 -34 -3 -33 21 0 20 1 20 9 1 7 -17 9 -17 9 -3 2 33 -64 52 -76 22z"/>
<path d="M1695 2140 c11 -5 40 -9 65 -9 34 0 40 3 25 9 -11 5 -40 9 -65 9 -34
0 -40 -3 -25 -9z"/>
<path d="M1715 2019 c-16 -11 -61 -36 -100 -55 -67 -34 -95 -56 -95 -78 0 -6
7 0 16 12 8 12 55 42 103 66 48 25 93 51 100 60 18 21 12 20 -24 -5z"/>
<path d="M1641 1633 c0 -36 1 -64 3 -62 9 10 16 129 8 129 -6 0 -10 -30 -11
-67z"/>
<path d="M1900 1573 c-7 -49 -16 -98 -21 -110 -5 -13 -5 -23 0 -23 4 0 13 17
19 38 12 42 27 182 19 182 -3 0 -10 -39 -17 -87z"/>
<path d="M1775 1310 c70 -39 95 -48 95 -31 0 10 -130 71 -151 71 -8 0 18 -18
56 -40z"/>
<path d="M1492 1199 c20 -109 86 -269 151 -367 16 -24 26 -46 23 -49 -3 -3
-22 5 -43 17 l-38 22 25 -23 c32 -28 149 -84 158 -74 4 3 -2 11 -13 17 -93 50
-224 289 -251 456 -4 23 -10 44 -14 47 -4 2 -3 -18 2 -46z"/>
<path d="M1560 1207 c0 -2 38 -27 85 -56 46 -28 101 -71 122 -96 42 -51 55
-52 25 -3 -27 44 -83 88 -160 127 -59 30 -72 35 -72 28z"/>
<path d="M1683 555 c8 -16 30 -43 48 -60 31 -29 31 -28 -6 20 -54 69 -60 75
-42 40z"/>
<path d="M1727 441 c37 -17 65 -47 110 -117 9 -15 12 -16 12 -4 1 25 -47 94
-83 118 -18 12 -43 22 -57 22 -19 0 -16 -4 18 -19z"/>
</g>
</svg>
